<?xml version="1.0" standalone="yes"?>

<svg version="1.1" viewBox="0.0 0.0 750.0 446.0" fill="none" stroke="none" stroke-linecap="square" stroke-miterlimit="10" xmlns="http://www.w3.org/2000/svg" xmlns:xlink="http://www.w3.org/1999/xlink"><clipPath id="p.0"><path d="m0 0l750.0 0l0 446.0l-750.0 0l0 -446.0z" clip-rule="nonzero"></path></clipPath><g clip-path="url(#p.0)"><path fill="#000000" fill-opacity="0.0" d="m0 0l750.96063 0l0 446.43045l-750.96063 0z" fill-rule="nonzero"></path><path fill="#000000" fill-opacity="0.0" d="m7.88189 431.28348l735.33856 0" fill-rule="nonzero"></path><path stroke="#000000" stroke-width="2.0" stroke-linejoin="round" stroke-linecap="butt" d="m7.88189 431.28348l723.33856 0" fill-rule="evenodd"></path><path fill="#000000" stroke="#000000" stroke-width="2.0" stroke-linecap="butt" d="m731.22046 434.58694l9.076233 -3.3034668l-9.076233 -3.3034668z" fill-rule="evenodd"></path><path fill="#000000" fill-opacity="0.0" d="m7.88189 431.28348l0 -427.43307" fill-rule="nonzero"></path><path stroke="#000000" stroke-width="2.0" stroke-linejoin="round" stroke-linecap="butt" d="m7.88189 431.28348l0 -415.43307" fill-rule="evenodd"></path><path fill="#000000" stroke="#000000" stroke-width="2.0" stroke-linecap="butt" d="m11.185354 15.850393l-3.3034644 -9.076195l-3.303465 9.076195z" fill-rule="evenodd"></path><path fill="#000000" fill-opacity="0.0" d="m198.65747 381.08594l330.80316 0l0 37.385834l-330.80316 0z" fill-rule="nonzero"></path><path fill="#000000" d="m270.55606 408.00595l0 -13.59375l5.109375 0q1.546875 0 2.484375 0.40625q0.953125 0.40625 1.484375 1.265625q0.53125 0.859375 0.53125 1.796875q0 0.875 -0.46875 1.65625q-0.46875 0.765625 -1.4375 1.234375q1.234375 0.359375 1.890625 1.234375q0.671875 0.875 0.671875 2.0625q0 0.953125 -0.40625 1.78125q-0.390625 0.8125 -0.984375 1.265625q-0.59375 0.4375 -1.5 0.671875q-0.890625 0.21875 -2.1875 0.21875l-5.1875 0zm1.796875 -7.890625l2.9375 0q1.203125 0 1.71875 -0.15625q0.6875 -0.203125 1.03125 -0.671875q0.359375 -0.46875 0.359375 -1.1875q0 -0.671875 -0.328125 -1.1875q-0.328125 -0.515625 -0.9375 -0.703125q-0.59375 -0.203125 -2.0625 -0.203125l-2.71875 0l0 4.109375zm0 6.28125l3.390625 0q0.875 0 1.21875 -0.0625q0.625 -0.109375 1.046875 -0.359375q0.421875 -0.265625 0.6875 -0.765625q0.265625 -0.5 0.265625 -1.140625q0 -0.765625 -0.390625 -1.328125q-0.390625 -0.5625 -1.078125 -0.78125q-0.6875 -0.234375 -1.984375 -0.234375l-3.15625 0l0 4.671875zm17.256073 -1.5625l1.71875 0.21875q-0.40625 1.5 -1.515625 2.34375q-1.09375 0.828125 -2.8125 0.828125q-2.15625 0 -3.421875 -1.328125q-1.265625 -1.328125 -1.265625 -3.734375q0 -2.484375 1.265625 -3.859375q1.28125 -1.375 3.328125 -1.375q1.984375 0 3.234375 1.34375q1.25 1.34375 1.25 3.796875q0 0.140625 -0.015625 0.4375l-7.34375 0q0.09375 1.625 0.921875 2.484375q0.828125 0.859375 2.0625 0.859375q0.90625 0 1.546875 -0.46875q0.65625 -0.484375 1.046875 -1.546875zm-5.484375 -2.703125l5.5 0q-0.109375 -1.234375 -0.625 -1.859375q-0.796875 -0.96875 -2.078125 -0.96875q-1.140625 0 -1.9375 0.78125q-0.78125 0.765625 -0.859375 2.046875zm15.547577 4.65625q-0.9375 0.796875 -1.796875 1.125q-0.859375 0.3125 -1.84375 0.3125q-1.609375 0 -2.484375 -0.78125q-0.875 -0.796875 -0.875 -2.03125q0 -0.734375 0.328125 -1.328125q0.328125 -0.59375 0.859375 -0.953125q0.53125 -0.359375 1.203125 -0.546875q0.5 -0.140625 1.484375 -0.25q2.03125 -0.25 2.984375 -0.578125q0 -0.34375 0 -0.4375q0 -1.015625 -0.46875 -1.4375q-0.640625 -0.5625 -1.90625 -0.5625q-1.171875 0 -1.734375 0.40625q-0.5625 0.40625 -0.828125 1.46875l-1.640625 -0.234375q0.234375 -1.046875 0.734375 -1.6875q0.515625 -0.640625 1.46875 -0.984375q0.96875 -0.359375 2.25 -0.359375q1.265625 0 2.046875 0.296875q0.78125 0.296875 1.15625 0.75q0.375 0.453125 0.515625 1.140625q0.09375 0.421875 0.09375 1.53125l0 2.234375q0 2.328125 0.09375 2.953125q0.109375 0.609375 0.4375 1.171875l-1.75 0q-0.265625 -0.515625 -0.328125 -1.21875zm-0.140625 -3.71875q-0.90625 0.359375 -2.734375 0.625q-1.03125 0.140625 -1.453125 0.328125q-0.421875 0.1875 -0.65625 0.546875q-0.234375 0.359375 -0.234375 0.796875q0 0.671875 0.5 1.125q0.515625 0.4375 1.484375 0.4375q0.96875 0 1.71875 -0.421875q0.75 -0.4375 1.109375 -1.15625q0.265625 -0.578125 0.265625 -1.671875l0 -0.609375zm10.531982 4.9375l0 -1.453125q-1.140625 1.671875 -3.125 1.671875q-0.859375 0 -1.625 -0.328125q-0.75 -0.34375 -1.125 -0.84375q-0.359375 -0.5 -0.515625 -1.234375q-0.09375 -0.5 -0.09375 -1.5625l0 -6.109375l1.671875 0l0 5.46875q0 1.3125 0.09375 1.765625q0.15625 0.65625 0.671875 1.03125q0.515625 0.375 1.265625 0.375q0.75 0 1.40625 -0.375q0.65625 -0.390625 0.921875 -1.046875q0.28125 -0.671875 0.28125 -1.9375l0 -5.28125l1.671875 0l0 9.859375l-1.5 0zm7.578827 -1.5l0.234375 1.484375q-0.703125 0.140625 -1.265625 0.140625q-0.90625 0 -1.40625 -0.28125q-0.5 -0.296875 -0.703125 -0.75q-0.203125 -0.46875 -0.203125 -1.984375l0 -5.65625l-1.234375 0l0 -1.3125l1.234375 0l0 -2.4375l1.65625 -1.0l0 3.4375l1.6875 0l0 1.3125l-1.6875 0l0 5.75q0 0.71875 0.078125 0.921875q0.09375 0.203125 0.296875 0.328125q0.203125 0.125 0.578125 0.125q0.265625 0 0.734375 -0.078125zm1.5426941 -10.1875l0 -1.90625l1.671875 0l0 1.90625l-1.671875 0zm0 11.6875l0 -9.859375l1.671875 0l0 9.859375l-1.671875 0zm4.535431 0l0 -8.546875l-1.484375 0l0 -1.3125l1.484375 0l0 -1.046875q0 -0.984375 0.171875 -1.46875q0.234375 -0.65625 0.84375 -1.046875q0.609375 -0.40625 1.703125 -0.40625q0.703125 0 1.5625 0.15625l-0.25 1.46875q-0.515625 -0.09375 -0.984375 -0.09375q-0.765625 0 -1.078125 0.328125q-0.3125 0.3125 -0.3125 1.203125l0 0.90625l1.921875 0l0 1.3125l-1.921875 0l0 8.546875l-1.65625 0zm11.230194 0l0 -1.453125q-1.140625 1.671875 -3.125 1.671875q-0.859375 0 -1.625 -0.328125q-0.75 -0.34375 -1.125 -0.84375q-0.359375 -0.5 -0.515625 -1.234375q-0.09375 -0.5 -0.09375 -1.5625l0 -6.109375l1.671875 0l0 5.46875q0 1.3125 0.09375 1.765625q0.15625 0.65625 0.671875 1.03125q0.515625 0.375 1.265625 0.375q0.75 0 1.40625 -0.375q0.65625 -0.390625 0.921875 -1.046875q0.28125 -0.671875 0.28125 -1.9375l0 -5.28125l1.671875 0l0 9.859375l-1.5 0zm3.891327 0l0 -13.59375l1.671875 0l0 13.59375l-1.671875 0zm4.6135864 0l0 -1.90625l1.90625 0l0 1.90625q0 1.046875 -0.375 1.6875q-0.375 0.65625 -1.171875 1.0l-0.46875 -0.71875q0.53125 -0.21875 0.78125 -0.671875q0.25 -0.453125 0.28125 -1.296875l-0.953125 0zm9.257233 -2.9375l1.65625 -0.265625q0.140625 1.0 0.765625 1.53125q0.640625 0.515625 1.78125 0.515625q1.15625 0 1.703125 -0.46875q0.5625 -0.46875 0.5625 -1.09375q0 -0.5625 -0.484375 -0.890625q-0.34375 -0.21875 -1.703125 -0.5625q-1.84375 -0.46875 -2.5625 -0.796875q-0.703125 -0.34375 -1.078125 -0.9375q-0.359375 -0.609375 -0.359375 -1.328125q0 -0.65625 0.296875 -1.21875q0.3125 -0.5625 0.828125 -0.9375q0.390625 -0.28125 1.0625 -0.484375q0.671875 -0.203125 1.4375 -0.203125q1.171875 0 2.046875 0.34375q0.875 0.328125 1.28125 0.90625q0.421875 0.5625 0.578125 1.515625l-1.625 0.21875q-0.109375 -0.75 -0.65625 -1.171875q-0.53125 -0.4375 -1.5 -0.4375q-1.15625 0 -1.640625 0.390625q-0.484375 0.375 -0.484375 0.875q0 0.328125 0.203125 0.59375q0.203125 0.265625 0.640625 0.4375q0.25 0.09375 1.46875 0.4375q1.765625 0.46875 2.46875 0.765625q0.703125 0.296875 1.09375 0.875q0.40625 0.578125 0.40625 1.4375q0 0.828125 -0.484375 1.578125q-0.484375 0.734375 -1.40625 1.140625q-0.921875 0.390625 -2.078125 0.390625q-1.921875 0 -2.9375 -0.796875q-1.0 -0.796875 -1.28125 -2.359375zm13.65625 1.4375l0.234375 1.484375q-0.703125 0.140625 -1.265625 0.140625q-0.90625 0 -1.40625 -0.28125q-0.5 -0.296875 -0.703125 -0.75q-0.203125 -0.46875 -0.203125 -1.984375l0 -5.65625l-1.234375 0l0 -1.3125l1.234375 0l0 -2.4375l1.65625 -1.0l0 3.4375l1.6875 0l0 1.3125l-1.6875 0l0 5.75q0 0.71875 0.078125 0.921875q0.09375 0.203125 0.296875 0.328125q0.203125 0.125 0.578125 0.125q0.265625 0 0.734375 -0.078125zm1.5114136 1.5l0 -9.859375l1.5 0l0 1.5q0.578125 -1.046875 1.0625 -1.375q0.484375 -0.34375 1.078125 -0.34375q0.84375 0 1.71875 0.546875l-0.578125 1.546875q-0.609375 -0.359375 -1.234375 -0.359375q-0.546875 0 -0.984375 0.328125q-0.421875 0.328125 -0.609375 0.90625q-0.28125 0.890625 -0.28125 1.953125l0 5.15625l-1.671875 0zm12.665802 -1.21875q-0.9375 0.796875 -1.796875 1.125q-0.859375 0.3125 -1.84375 0.3125q-1.609375 0 -2.484375 -0.78125q-0.875 -0.796875 -0.875 -2.03125q0 -0.734375 0.328125 -1.328125q0.328125 -0.59375 0.859375 -0.953125q0.53125 -0.359375 1.203125 -0.546875q0.5 -0.140625 1.484375 -0.25q2.03125 -0.25 2.984375 -0.578125q0 -0.34375 0 -0.4375q0 -1.015625 -0.46875 -1.4375q-0.640625 -0.5625 -1.90625 -0.5625q-1.171875 0 -1.734375 0.40625q-0.5625 0.40625 -0.828125 1.46875l-1.640625 -0.234375q0.234375 -1.046875 0.734375 -1.6875q0.515625 -0.640625 1.46875 -0.984375q0.96875 -0.359375 2.25 -0.359375q1.265625 0 2.046875 0.296875q0.78125 0.296875 1.15625 0.75q0.375 0.453125 0.515625 1.140625q0.09375 0.421875 0.09375 1.53125l0 2.234375q0 2.328125 0.09375 2.953125q0.109375 0.609375 0.4375 1.171875l-1.75 0q-0.265625 -0.515625 -0.328125 -1.21875zm-0.140625 -3.71875q-0.90625 0.359375 -2.734375 0.625q-1.03125 0.140625 -1.453125 0.328125q-0.421875 0.1875 -0.65625 0.546875q-0.234375 0.359375 -0.234375 0.796875q0 0.671875 0.5 1.125q0.515625 0.4375 1.484375 0.4375q0.96875 0 1.71875 -0.421875q0.75 -0.4375 1.109375 -1.15625q0.265625 -0.578125 0.265625 -1.671875l0 -0.609375zm4.0944824 -6.75l0 -1.90625l1.671875 0l0 1.90625l-1.671875 0zm0 11.6875l0 -9.859375l1.671875 0l0 9.859375l-1.671875 0zm3.832306 0.8125l1.609375 0.25q0.109375 0.75 0.578125 1.09375q0.609375 0.453125 1.6875 0.453125q1.171875 0 1.796875 -0.46875q0.625 -0.453125 0.859375 -1.28125q0.125 -0.515625 0.109375 -2.15625q-1.09375 1.296875 -2.71875 1.296875q-2.03125 0 -3.15625 -1.46875q-1.109375 -1.46875 -1.109375 -3.515625q0 -1.40625 0.515625 -2.59375q0.515625 -1.203125 1.484375 -1.84375q0.96875 -0.65625 2.265625 -0.65625q1.75 0 2.875 1.40625l0 -1.1875l1.546875 0l0 8.515625q0 2.3125 -0.46875 3.265625q-0.46875 0.96875 -1.484375 1.515625q-1.015625 0.5625 -2.5 0.5625q-1.765625 0 -2.859375 -0.796875q-1.078125 -0.796875 -1.03125 -2.390625zm1.375 -5.921875q0 1.953125 0.765625 2.84375q0.78125 0.890625 1.9375 0.890625q1.140625 0 1.921875 -0.890625q0.78125 -0.890625 0.78125 -2.78125q0 -1.8125 -0.8125 -2.71875q-0.796875 -0.921875 -1.921875 -0.921875q-1.109375 0 -1.890625 0.90625q-0.78125 0.890625 -0.78125 2.671875zm9.297607 5.109375l0 -13.59375l1.671875 0l0 4.875q1.171875 -1.359375 2.953125 -1.359375q1.09375 0 1.890625 0.4375q0.8125 0.421875 1.15625 1.1875q0.359375 0.765625 0.359375 2.203125l0 6.25l-1.671875 0l0 -6.25q0 -1.25 -0.546875 -1.8125q-0.546875 -0.578125 -1.53125 -0.578125q-0.75 0 -1.40625 0.390625q-0.640625 0.375 -0.921875 1.046875q-0.28125 0.65625 -0.28125 1.8125l0 5.390625l-1.671875 0zm14.031952 -1.5l0.234375 1.484375q-0.703125 0.140625 -1.265625 0.140625q-0.90625 0 -1.40625 -0.28125q-0.5 -0.296875 -0.703125 -0.75q-0.203125 -0.46875 -0.203125 -1.984375l0 -5.65625l-1.234375 0l0 -1.3125l1.234375 0l0 -2.4375l1.65625 -1.0l0 3.4375l1.6875 0l0 1.3125l-1.6875 0l0 5.75q0 0.71875 0.078125 0.921875q0.09375 0.203125 0.296875 0.328125q0.203125 0.125 0.578125 0.125q0.265625 0 0.734375 -0.078125zm13.147858 -2.109375l1.640625 0.21875q-0.265625 1.6875 -1.375 2.65625q-1.109375 0.953125 -2.734375 0.953125q-2.015625 0 -3.25 -1.3125q-1.21875 -1.328125 -1.21875 -3.796875q0 -1.59375 0.515625 -2.78125q0.53125 -1.203125 1.609375 -1.796875q1.09375 -0.609375 2.359375 -0.609375q1.609375 0 2.625 0.8125q1.015625 0.8125 1.3125 2.3125l-1.625 0.25q-0.234375 -1.0 -0.828125 -1.5q-0.59375 -0.5 -1.421875 -0.5q-1.265625 0 -2.0625 0.90625q-0.78125 0.90625 -0.78125 2.859375q0 1.984375 0.765625 2.890625q0.765625 0.890625 1.984375 0.890625q0.984375 0 1.640625 -0.59375q0.65625 -0.609375 0.84375 -1.859375zm2.265625 -1.3125q0 -2.734375 1.53125 -4.0625q1.265625 -1.09375 3.09375 -1.09375q2.03125 0 3.3125 1.34375q1.296875 1.328125 1.296875 3.671875q0 1.90625 -0.578125 3.0q-0.5625 1.078125 -1.65625 1.6875q-1.078125 0.59375 -2.375 0.59375q-2.0625 0 -3.34375 -1.328125q-1.28125 -1.328125 -1.28125 -3.8125zm1.71875 0q0 1.890625 0.828125 2.828125q0.828125 0.9375 2.078125 0.9375q1.25 0 2.0625 -0.9375q0.828125 -0.953125 0.828125 -2.890625q0 -1.828125 -0.828125 -2.765625q-0.828125 -0.9375 -2.0625 -0.9375q-1.25 0 -2.078125 0.9375q-0.828125 0.9375 -0.828125 2.828125zm15.672607 4.921875l0 -1.25q-0.9375 1.46875 -2.75 1.46875q-1.171875 0 -2.171875 -0.640625q-0.984375 -0.65625 -1.53125 -1.8125q-0.53125 -1.171875 -0.53125 -2.6875q0 -1.46875 0.484375 -2.671875q0.5 -1.203125 1.46875 -1.84375q0.984375 -0.640625 2.203125 -0.640625q0.890625 0 1.578125 0.375q0.703125 0.375 1.140625 0.984375l0 -4.875l1.65625 0l0 13.59375l-1.546875 0zm-5.28125 -4.921875q0 1.890625 0.796875 2.828125q0.8125 0.9375 1.890625 0.9375q1.09375 0 1.859375 -0.890625q0.765625 -0.890625 0.765625 -2.734375q0 -2.015625 -0.78125 -2.953125q-0.78125 -0.953125 -1.921875 -0.953125q-1.109375 0 -1.859375 0.90625q-0.75 0.90625 -0.75 2.859375zm16.016327 1.75l1.71875 0.21875q-0.40625 1.5 -1.515625 2.34375q-1.09375 0.828125 -2.8125 0.828125q-2.15625 0 -3.421875 -1.328125q-1.265625 -1.328125 -1.265625 -3.734375q0 -2.484375 1.265625 -3.859375q1.28125 -1.375 3.328125 -1.375q1.984375 0 3.234375 1.34375q1.25 1.34375 1.25 3.796875q0 0.140625 -0.015625 0.4375l-7.34375 0q0.09375 1.625 0.921875 2.484375q0.828125 0.859375 2.0625 0.859375q0.90625 0 1.546875 -0.46875q0.65625 -0.484375 1.046875 -1.546875zm-5.484375 -2.703125l5.5 0q-0.109375 -1.234375 -0.625 -1.859375q-0.796875 -0.96875 -2.078125 -0.96875q-1.140625 0 -1.9375 0.78125q-0.78125 0.765625 -0.859375 2.046875z" fill-rule="nonzero"></path><path fill="#000000" fill-opacity="0.0" d="m7.8825555 368.01315l0 -299.0551l41.322834 0l0 299.0551z" fill-rule="nonzero"></path><path fill="#000000" d="m34.802555 303.5668l-13.593752 0l0 -9.84375l1.59375 0l0 8.046875l4.171875 0l0 -7.53125l1.59375 0l0 7.53125l4.625002 0l0 -8.359375l1.609375 0l0 10.15625zm0 -12.599823l-8.546877 0l0 1.484375l-1.3125 0l0 -1.484375l-1.046875 0q-0.984375 0 -1.46875 -0.171875q-0.65625 -0.234375 -1.046875 -0.84375q-0.40625 -0.609375 -0.40625 -1.703125q0 -0.703125 0.15625 -1.5625l1.46875 0.25q-0.09375 0.515625 -0.09375 0.984375q0 0.765625 0.328125 1.078125q0.3125 0.3125 1.203125 0.3125l0.90625 0l0 -1.921875l1.3125 0l0 1.921875l8.546877 0l0 1.65625zm0 -5.1832886l-8.546877 0l0 1.484375l-1.3125 0l0 -1.484375l-1.046875 0q-0.984375 0 -1.46875 -0.171875q-0.65625 -0.234375 -1.046875 -0.84375q-0.40625 -0.609375 -0.40625 -1.703125q0 -0.703125 0.15625 -1.5625l1.46875 0.25q-0.09375 0.515625 -0.09375 0.984375q0 0.765625 0.328125 1.078125q0.3125 0.3125 1.203125 0.3125l0.90625 0l0 -1.921875l1.3125 0l0 1.921875l8.546877 0l0 1.65625zm-11.687502 -4.792694l-1.90625 0l0 -1.671875l1.90625 0l0 1.671875zm11.687502 0l-9.859377 0l0 -1.671875l9.859377 0l0 1.671875zm-3.609377 -10.566681l0.21875 -1.640625q1.6875019 0.265625 2.656252 1.375q0.953125 1.109375 0.953125 2.734375q0 2.015625 -1.3125 3.25q-1.328125 1.21875 -3.796877 1.21875q-1.59375 0 -2.78125 -0.515625q-1.203125 -0.53125 -1.796875 -1.609375q-0.609375 -1.09375 -0.609375 -2.359375q0 -1.609375 0.8125 -2.625q0.8125 -1.015625 2.3125 -1.3125l0.25 1.625q-1.0 0.234375 -1.5 0.828125q-0.5 0.59375 -0.5 1.421875q0 1.265625 0.90625 2.0625q0.90625 0.78125 2.859375 0.78125q1.984375 0 2.890627 -0.765625q0.890625 -0.765625 0.890625 -1.984375q0 -0.984375 -0.59375 -1.640625q-0.609375 -0.65625 -1.8593769 -0.84375zm-8.078125 -2.90625l-1.90625 0l0 -1.671875l1.90625 0l0 1.671875zm11.687502 0l-9.859377 0l0 -1.671875l9.859377 0l0 1.671875zm-3.171877 -10.879211l0.21875 -1.71875q1.5000019 0.40625 2.343752 1.515625q0.828125 1.09375 0.828125 2.8125q0 2.15625 -1.328125 3.421875q-1.328125 1.265625 -3.734377 1.265625q-2.484375 0 -3.859375 -1.265625q-1.375 -1.28125 -1.375 -3.328125q0 -1.984375 1.34375 -3.234375q1.34375 -1.25 3.796875 -1.25q0.140625 0 0.4375 0.015625l0 7.34375q1.625 -0.09375 2.484377 -0.921875q0.859375 -0.828125 0.859375 -2.0625q0 -0.90625 -0.46875 -1.546875q-0.484375 -0.65625 -1.5468769 -1.046875zm-2.703125 5.484375l0 -5.5q-1.234375 0.109375 -1.859375 0.625q-0.96875 0.796875 -0.96875 2.078125q0 1.140625 0.78125 1.9375q0.765625 0.78125 2.046875 0.859375zm5.875002 -9.110092l-9.859377 0l0 -1.5l1.40625 0q-1.625 -1.09375 -1.625 -3.140625q0 -0.890625 0.328125 -1.640625q0.3125 -0.75 0.84375 -1.109375q0.515625 -0.375 1.21875 -0.53125q0.46875 -0.09375 1.625 -0.09375l6.062502 0l0 1.671875l-6.000002 0q-1.015625 0 -1.515625 0.203125q-0.515625 0.1875 -0.8125 0.6875q-0.296875 0.5 -0.296875 1.171875q0 1.0625 0.671875 1.84375q0.671875 0.765625 2.578125 0.765625l5.375002 0l0 1.671875zm-1.5 -14.031967l1.484375 -0.234375q0.140625 0.703125 0.140625 1.265625q0 0.90625 -0.28125 1.40625q-0.296875 0.5 -0.75 0.703125q-0.46875 0.203125 -1.9843769 0.203125l-5.65625 0l0 1.234375l-1.3125 0l0 -1.234375l-2.4375 0l-1.0 -1.65625l3.4375 0l0 -1.6875l1.3125 0l0 1.6875l5.750002 0q0.71875 0 0.921875 -0.078125q0.203125 -0.09375 0.328125 -0.296875q0.125 -0.203125 0.125 -0.578125q0 -0.265625 -0.078125 -0.734375zm-2.109377 -13.147858l0.21875 -1.640625q1.6875019 0.265625 2.656252 1.375q0.953125 1.109375 0.953125 2.734375q0 2.015625 -1.3125 3.25q-1.328125 1.21875 -3.796877 1.21875q-1.59375 0 -2.78125 -0.515625q-1.203125 -0.53125 -1.796875 -1.609375q-0.609375 -1.09375 -0.609375 -2.359375q0 -1.609375 0.8125 -2.625q0.8125 -1.015625 2.3125 -1.3125l0.25 1.625q-1.0 0.234375 -1.5 0.828125q-0.5 0.59375 -0.5 1.421875q0 1.265625 0.90625 2.0625q0.90625 0.78125 2.859375 0.78125q1.984375 0 2.890627 -0.765625q0.890625 -0.765625 0.890625 -1.984375q0 -0.984375 -0.59375 -1.640625q-0.609375 -0.65625 -1.8593769 -0.84375zm-1.3125 -2.265625q-2.734375 0 -4.0625 -1.53125q-1.09375 -1.265625 -1.09375 -3.09375q0 -2.03125 1.34375 -3.3125q1.328125 -1.296875 3.671875 -1.296875q1.90625 0 3.000002 0.578125q1.078125 0.5625 1.6875 1.65625q0.59375 1.078125 0.59375 2.375q0 2.0625 -1.328125 3.34375q-1.328125 1.28125 -3.812502 1.28125zm0 -1.71875q1.890625 0 2.828127 -0.828125q0.9375 -0.828125 0.9375 -2.078125q0 -1.25 -0.9375 -2.0625q-0.9531269 -0.828125 -2.890627 -0.828125q-1.828125 0 -2.765625 0.828125q-0.9375 0.828125 -0.9375 2.0625q0 1.25 0.9375 2.078125q0.9375 0.828125 2.828125 0.828125zm4.921877 -9.281952l-9.859377 0l0 -1.5l1.40625 0q-1.625 -1.09375 -1.625 -3.140625q0 -0.890625 0.328125 -1.640625q0.3125 -0.75 0.84375 -1.109375q0.515625 -0.375 1.21875 -0.53125q0.46875 -0.09375 1.625 -0.09375l6.062502 0l0 1.671875l-6.000002 0q-1.015625 0 -1.515625 0.203125q-0.515625 0.1875 -0.8125 0.6875q-0.296875 0.5 -0.296875 1.171875q0 1.0625 0.671875 1.84375q0.671875 0.765625 2.578125 0.765625l5.375002 0l0 1.671875zm-3.609377 -16.813232l0.21875 -1.640625q1.6875019 0.265625 2.656252 1.375q0.953125 1.109375 0.953125 2.734375q0 2.015625 -1.3125 3.25q-1.328125 1.21875 -3.796877 1.21875q-1.59375 0 -2.78125 -0.515625q-1.203125 -0.53125 -1.796875 -1.609375q-0.609375 -1.09375 -0.609375 -2.359375q0 -1.609375 0.8125 -2.625q0.8125 -1.015625 2.3125 -1.3125l0.25 1.625q-1.0 0.234375 -1.5 0.828125q-0.5 0.59375 -0.5 1.421875q0 1.265625 0.90625 2.0625q0.90625 0.78125 2.859375 0.78125q1.984375 0 2.890627 -0.765625q0.890625 -0.765625 0.890625 -1.984375q0 -0.984375 -0.59375 -1.640625q-0.609375 -0.65625 -1.8593769 -0.84375zm3.609377 -9.34375l-1.453125 0q1.671875 1.140625 1.671875 3.125q0 0.859375 -0.328125 1.625q-0.34375 0.75 -0.84375 1.125q-0.5 0.359375 -1.234375 0.515625q-0.5 0.09375 -1.5625019 0.09375l-6.109375 0l0 -1.671875l5.46875 0q1.3125 0 1.7656269 -0.09375q0.65625 -0.15625 1.03125 -0.671875q0.375 -0.515625 0.375 -1.265625q0 -0.75 -0.375 -1.40625q-0.390625 -0.65625 -1.046875 -0.921875q-0.6718769 -0.28125 -1.9375019 -0.28125l-5.28125 0l0 -1.671875l9.859377 0l0 1.5zm0 -3.906952l-9.859377 0l0 -1.5l1.5 0q-1.046875 -0.578125 -1.375 -1.0625q-0.34375 -0.484375 -0.34375 -1.078125q0 -0.84375 0.546875 -1.71875l1.546875 0.578125q-0.359375 0.609375 -0.359375 1.234375q0 0.546875 0.328125 0.984375q0.328125 0.421875 0.90625 0.609375q0.890625 0.28125 1.953125 0.28125l5.156252 0l0 1.671875zm0 -6.212677l-9.859377 0l0 -1.5l1.5 0q-1.046875 -0.578125 -1.375 -1.0625q-0.34375 -0.484375 -0.34375 -1.078125q0 -0.84375 0.546875 -1.71875l1.546875 0.578125q-0.359375 0.609375 -0.359375 1.234375q0 0.546875 0.328125 0.984375q0.328125 0.421875 0.90625 0.609375q0.890625 0.28125 1.953125 0.28125l5.156252 0l0 1.671875zm-3.171877 -12.978302l0.21875 -1.71875q1.5000019 0.40625 2.343752 1.515625q0.828125 1.09375 0.828125 2.8125q0 2.15625 -1.328125 3.421875q-1.328125 1.265625 -3.734377 1.265625q-2.484375 0 -3.859375 -1.265625q-1.375 -1.28125 -1.375 -3.328125q0 -1.984375 1.34375 -3.234375q1.34375 -1.25 3.796875 -1.25q0.140625 0 0.4375 0.015625l0 7.34375q1.625 -0.09375 2.484377 -0.921875q0.859375 -0.828125 0.859375 -2.0625q0 -0.90625 -0.46875 -1.546875q-0.484375 -0.65625 -1.5468769 -1.046875zm-2.703125 5.484375l0 -5.5q-1.234375 0.109375 -1.859375 0.625q-0.96875 0.796875 -0.96875 2.078125q0 1.140625 0.78125 1.9375q0.765625 0.78125 2.046875 0.859375zm5.875002 -9.110107l-9.859377 0l0 -1.5l1.40625 0q-1.625 -1.09375 -1.625 -3.140625q0 -0.890625 0.328125 -1.640625q0.3125 -0.75 0.84375 -1.109375q0.515625 -0.375 1.21875 -0.53125q0.46875 -0.09375 1.625 -0.09375l6.062502 0l0 1.671875l-6.000002 0q-1.015625 0 -1.515625 0.203125q-0.515625 0.1875 -0.8125 0.6875q-0.296875 0.5 -0.296875 1.171875q0 1.0625 0.671875 1.84375q0.671875 0.765625 2.578125 0.765625l5.375002 0l0 1.671875zm-3.609377 -16.813202l0.21875 -1.640625q1.6875019 0.265625 2.656252 1.375q0.953125 1.109375 0.953125 2.734375q0 2.015625 -1.3125 3.25q-1.328125 1.21875 -3.796877 1.21875q-1.59375 0 -2.78125 -0.515625q-1.203125 -0.53125 -1.796875 -1.609375q-0.609375 -1.09375 -0.609375 -2.359375q0 -1.609375 0.8125 -2.625q0.8125 -1.015625 2.3125 -1.3125l0.25 1.625q-1.0 0.234375 -1.5 0.828125q-0.5 0.59375 -0.5 1.421875q0 1.265625 0.90625 2.0625q0.90625 0.78125 2.859375 0.78125q1.984375 0 2.890627 -0.765625q0.890625 -0.765625 0.890625 -1.984375q0 -0.984375 -0.59375 -1.640625q-0.609375 -0.65625 -1.8593769 -0.84375zm7.406252 -2.8125l-1.5625 0.171875q0.140625 -0.546875 0.140625 -0.953125q0 -0.546875 -0.1875 -0.875q-0.1875 -0.34375 -0.515625 -0.5625q-0.25 -0.15625 -1.25 -0.5q-0.140625 -0.046875 -0.40625 -0.15625l-9.875002 3.734375l0 -1.796875l5.71875 -2.046875q1.078125 -0.40625 2.281252 -0.71875q-1.1562519 -0.28125 -2.250002 -0.6875l-5.75 -2.09375l0 -1.671875l10.031252 3.75q1.625 0.59375 2.234375 0.9375q0.828125 0.4375 1.203125 1.015625q0.390625 0.578125 0.390625 1.375q0 0.484375 -0.203125 1.078125z" fill-rule="nonzero"></path><path fill="#cfe2f3" d="m11.692741 31.321877l0 0c0 -11.854553 14.016661 -21.464567 31.307087 -21.464567l0 0c17.290424 0 31.307087 9.610014 31.307087 21.464567l0 0c0 11.854553 -14.016663 21.464565 -31.307087 21.464565l0 0c-17.290426 0 -31.307087 -9.610012 -31.307087 -21.464565z" fill-rule="nonzero"></path><path stroke="#000000" stroke-width="2.0" stroke-linejoin="round" stroke-linecap="butt" d="m11.692741 31.321877l0 0c0 -11.854553 14.016661 -21.464567 31.307087 -21.464567l0 0c17.290424 0 31.307087 9.610014 31.307087 21.464567l0 0c0 11.854553 -14.016663 21.464565 -31.307087 21.464565l0 0c-17.290426 0 -31.307087 -9.610012 -31.307087 -21.464565z" fill-rule="nonzero"></path><path fill="#000000" d="m46.52019 32.63625l1.421875 0.359375q-0.4375 1.75 -1.609375 2.671875q-1.15625 0.921875 -2.828125 0.921875q-1.734375 0 -2.828125 -0.703125q-1.09375 -0.71875 -1.65625 -2.046875q-0.5625 -1.34375 -0.5625 -2.890623q0 -1.671875 0.640625 -2.921875q0.640625 -1.25 1.8125 -1.890625q1.1875 -0.65625 2.609375 -0.65625q1.609375 0 2.703125 0.828125q1.109375 0.8125 1.546875 2.296875l-1.40625 0.328125q-0.375 -1.171875 -1.09375 -1.703125q-0.703125 -0.53125 -1.78125 -0.53125q-1.234375 0 -2.0625 0.59375q-0.828125 0.59375 -1.171875 1.59375q-0.328125 1.0 -0.328125 2.0625q0 1.3593731 0.390625 2.390623q0.40625 1.015625 1.234375 1.53125q0.84375 0.5 1.828125 0.5q1.203125 0 2.03125 -0.6875q0.828125 -0.6875 1.109375 -2.046875z" fill-rule="nonzero"></path><path fill="#cfe2f3" d="m62.79527 31.322834l0 0c0 -11.854553 15.715862 -21.464565 35.10236 -21.464565l0 0c19.386505 0 35.10237 9.610013 35.10237 21.464565l0 0c0 11.854553 -15.715866 21.46457 -35.10237 21.46457l0 0c-19.386497 0 -35.10236 -9.610016 -35.10236 -21.46457z" fill-rule="nonzero"></path><path stroke="#000000" stroke-width="2.0" stroke-linejoin="round" stroke-linecap="butt" d="m62.79527 31.322834l0 0c0 -11.854553 15.715862 -21.464565 35.10236 -21.464565l0 0c19.386505 0 35.10237 9.610013 35.10237 21.464565l0 0c0 11.854553 -15.715866 21.46457 -35.10237 21.46457l0 0c-19.386497 0 -35.10236 -9.610016 -35.10236 -21.46457z" fill-rule="nonzero"></path><path fill="#000000" d="m92.85897 32.637207l1.421875 0.359375q-0.4375 1.75 -1.609375 2.671875q-1.15625 0.921875 -2.828125 0.921875q-1.734375 0 -2.828125 -0.703125q-1.09375 -0.71875 -1.65625 -2.046875q-0.5625 -1.34375 -0.5625 -2.890623q0 -1.671875 0.640625 -2.921875q0.640625 -1.25 1.8125 -1.890625q1.1875 -0.65625 2.609375 -0.65625q1.609375 0 2.703125 0.828125q1.109375 0.8125 1.546875 2.296875l-1.40625 0.328125q-0.375 -1.171875 -1.09375 -1.703125q-0.703125 -0.53125 -1.78125 -0.53125q-1.234375 0 -2.0625 0.59375q-0.828125 0.59375 -1.171875 1.59375q-0.328125 1.0 -0.328125 2.0625q0 1.3593731 0.390625 2.390623q0.40625 1.015625 1.234375 1.53125q0.84375 0.5 1.828125 0.5q1.203125 0 2.03125 -0.6875q0.828125 -0.6875 1.109375 -2.046875zm5.5217743 2.03125l0 -2.953123l-2.921875 0l0 -1.21875l2.921875 0l0 -2.921875l1.25 0l0 2.921875l2.921875 0l0 1.21875l-2.921875 0l0 2.953123l-1.25 0zm8.559021 0l0 -2.953123l-2.921875 0l0 -1.21875l2.921875 0l0 -2.921875l1.25 0l0 2.921875l2.921875 0l0 1.21875l-2.921875 0l0 2.953123l-1.25 0z" fill-rule="nonzero"></path><path fill="#cfe2f3" d="m42.879677 405.65063l0 0c0 -11.854553 18.00732 -21.46457 40.220474 -21.46457l0 0c22.21315 0 40.220474 9.610016 40.220474 21.46457l0 0c0 11.854553 -18.007324 21.46457 -40.220474 21.46457l0 0c-22.213154 0 -40.220474 -9.610016 -40.220474 -21.46457z" fill-rule="nonzero"></path><path stroke="#000000" stroke-width="2.0" stroke-linejoin="round" stroke-linecap="butt" d="m42.879677 405.65063l0 0c0 -11.854553 18.00732 -21.46457 40.220474 -21.46457l0 0c22.21315 0 40.220474 9.610016 40.220474 21.46457l0 0c0 11.854553 -18.007324 21.46457 -40.220474 21.46457l0 0c-22.213154 0 -40.220474 -9.610016 -40.220474 -21.46457z" fill-rule="nonzero"></path><path fill="#000000" d="m67.16472 410.73065l0 -10.734375l4.765625 0q1.4375 0 2.1875 0.296875q0.75 0.28125 1.1875 1.015625q0.453125 0.734375 0.453125 1.609375q0 1.140625 -0.75 1.9375q-0.734375 0.78125 -2.28125 0.984375q0.5625 0.28125 0.859375 0.546875q0.625 0.5625 1.1875 1.421875l1.859375 2.921875l-1.78125 0l-1.421875 -2.234375q-0.625 -0.96875 -1.03125 -1.46875q-0.40625 -0.515625 -0.71875 -0.71875q-0.3125 -0.21875 -0.640625 -0.296875q-0.25 -0.046875 -0.796875 -0.046875l-1.65625 0l0 4.765625l-1.421875 0zm1.421875 -6.0l3.0625 0q0.96875 0 1.515625 -0.203125q0.5625 -0.203125 0.84375 -0.640625q0.28125 -0.4375 0.28125 -0.96875q0 -0.75 -0.5625 -1.234375q-0.546875 -0.5 -1.734375 -0.5l-3.40625 0l0 3.546875zm14.084274 6.0l0 -1.140625q-0.921875 1.3125 -2.46875 1.3125q-0.6875 0 -1.296875 -0.265625q-0.59375 -0.265625 -0.890625 -0.65625q-0.28125 -0.40625 -0.390625 -0.984375q-0.09375 -0.375 -0.09375 -1.21875l0 -4.828125l1.328125 0l0 4.3125q0 1.03125 0.078125 1.390625q0.125 0.53125 0.515625 0.828125q0.40625 0.296875 1.0 0.296875q0.59375 0 1.109375 -0.296875q0.53125 -0.3125 0.75 -0.828125q0.21875 -0.53125 0.21875 -1.53125l0 -4.171875l1.3125 0l0 7.78125l-1.171875 0zm4.260483 0l-1.21875 0l0 -10.734375l1.3125 0l0 3.828125q0.84375 -1.046875 2.140625 -1.046875q0.71875 0 1.359375 0.296875q0.640625 0.28125 1.046875 0.8125q0.421875 0.515625 0.65625 1.265625q0.234375 0.734375 0.234375 1.578125q0 2.0 -1.0 3.09375q-0.984375 1.078125 -2.375 1.078125q-1.375 0 -2.15625 -1.140625l0 0.96875zm-0.015625 -3.953125q0 1.40625 0.390625 2.03125q0.609375 1.015625 1.671875 1.015625q0.875 0 1.5 -0.75q0.625 -0.75 0.625 -2.234375q0 -1.53125 -0.609375 -2.25q-0.59375 -0.734375 -1.453125 -0.734375q-0.859375 0 -1.5 0.75q-0.625 0.75 -0.625 2.171875zm6.901108 6.953125l-0.15625 -1.234375q0.4375 0.109375 0.75 0.109375q0.453125 0 0.703125 -0.15625q0.265625 -0.140625 0.4375 -0.40625q0.125 -0.1875 0.40625 -0.96875q0.03125 -0.109375 0.109375 -0.328125l-2.953125 -7.796875l1.421875 0l1.625 4.5q0.3125 0.859375 0.5625 1.8125q0.234375 -0.90625 0.546875 -1.78125l1.65625 -4.53125l1.328125 0l-2.96875 7.90625q-0.46875 1.28125 -0.734375 1.765625q-0.359375 0.65625 -0.8125 0.953125q-0.453125 0.3125 -1.078125 0.3125q-0.375 0 -0.84375 -0.15625z" fill-rule="nonzero"></path><path fill="#cfe2f3" d="m62.79522 366.1942l0 0c0 -11.854553 21.299965 -21.46457 47.5748 -21.46457l0 0c26.274834 0 47.574806 9.610016 47.574806 21.46457l0 0c0 11.854553 -21.299973 21.46457 -47.574806 21.46457l0 0c-26.274834 0 -47.5748 -9.610016 -47.5748 -21.46457z" fill-rule="nonzero"></path><path stroke="#000000" stroke-width="2.0" stroke-linejoin="round" stroke-linecap="butt" d="m62.79522 366.1942l0 0c0 -11.854553 21.299965 -21.46457 47.5748 -21.46457l0 0c26.274834 0 47.574806 9.610016 47.574806 21.46457l0 0c0 11.854553 -21.299973 21.46457 -47.574806 21.46457l0 0c-26.274834 0 -47.5748 -9.610016 -47.5748 -21.46457z" fill-rule="nonzero"></path><path fill="#000000" d="m88.711754 371.27423l0 -10.734375l4.046875 0q1.078125 0 1.640625 0.09375q0.78125 0.140625 1.3125 0.515625q0.546875 0.359375 0.875 1.03125q0.328125 0.65625 0.328125 1.46875q0 1.359375 -0.875 2.3125q-0.875 0.953125 -3.15625 0.953125l-2.75 0l0 4.359375l-1.421875 0zm1.421875 -5.625l2.78125 0q1.375 0 1.953125 -0.515625q0.578125 -0.515625 0.578125 -1.453125q0 -0.671875 -0.34375 -1.140625q-0.34375 -0.484375 -0.890625 -0.640625q-0.359375 -0.09375 -1.328125 -0.09375l-2.75 0l0 3.84375zm8.134979 8.625l-0.15625 -1.234375q0.4375 0.109375 0.75 0.109375q0.453125 0 0.703125 -0.15625q0.265625 -0.140625 0.4375 -0.40625q0.125 -0.1875 0.40625 -0.96875q0.03125 -0.109375 0.109375 -0.328125l-2.953125 -7.796875l1.421875 0l1.625 4.5q0.3125 0.859375 0.5625 1.8125q0.234375 -0.90625 0.546875 -1.78125l1.65625 -4.53125l1.328125 0l-2.96875 7.90625q-0.46875 1.28125 -0.734375 1.765625q-0.359375 0.65625 -0.8125 0.953125q-0.453125 0.3125 -1.078125 0.3125q-0.375 0 -0.84375 -0.15625zm10.265625 -4.171875l0.1875 1.15625q-0.5625 0.125 -1.0 0.125q-0.71875 0 -1.125 -0.234375q-0.390625 -0.234375 -0.546875 -0.59375q-0.15625 -0.375 -0.15625 -1.5625l0 -4.46875l-0.96875 0l0 -1.03125l0.96875 0l0 -1.921875l1.3125 -0.796875l0 2.71875l1.328125 0l0 1.03125l-1.328125 0l0 4.546875q0 0.5625 0.0625 0.734375q0.078125 0.15625 0.234375 0.25q0.15625 0.09375 0.4375 0.09375q0.234375 0 0.59375 -0.046875zm1.1813507 1.171875l0 -10.734375l1.328125 0l0 3.84375q0.921875 -1.0625 2.328125 -1.0625q0.859375 0 1.5 0.34375q0.640625 0.34375 0.90625 0.9375q0.28125 0.59375 0.28125 1.75l0 4.921875l-1.328125 0l0 -4.921875q0 -1.0 -0.421875 -1.4375q-0.421875 -0.453125 -1.21875 -0.453125q-0.578125 0 -1.09375 0.296875q-0.515625 0.296875 -0.734375 0.828125q-0.21875 0.515625 -0.21875 1.4375l0 4.25l-1.328125 0zm7.666733 -3.890625q0 -2.15625 1.203125 -3.203125q1.0 -0.859375 2.4375 -0.859375q1.609375 0 2.625 1.046875q1.015625 1.046875 1.015625 2.90625q0 1.5 -0.453125 2.359375q-0.4375 0.859375 -1.3125 1.34375q-0.859375 0.46875 -1.875 0.46875q-1.625 0 -2.640625 -1.046875q-1.0 -1.046875 -1.0 -3.015625zm1.359375 0q0 1.5 0.640625 2.25q0.65625 0.734375 1.640625 0.734375q0.984375 0 1.640625 -0.75q0.65625 -0.75 0.65625 -2.28125q0 -1.4375 -0.65625 -2.171875q-0.65625 -0.75 -1.640625 -0.75q-0.984375 0 -1.640625 0.734375q-0.640625 0.734375 -0.640625 2.234375zm7.276108 3.890625l0 -7.78125l1.1875 0l0 1.109375q0.8593826 -1.28125 2.4843826 -1.28125q0.703125 0 1.28125 0.25q0.59375 0.25 0.890625 0.671875q0.296875 0.40625 0.40625 0.96875q0.078125 0.359375 0.078125 1.28125l0 4.78125l-1.328125 0l0 -4.734375q0 -0.796875 -0.15625 -1.1875q-0.140625 -0.40625 -0.53125 -0.640625q-0.390625 -0.25 -0.921875 -0.25q-0.84375 0 -1.4531326 0.53125q-0.609375 0.53125 -0.609375 2.03125l0 4.25l-1.328125 0z" fill-rule="nonzero"></path><path fill="#cfe2f3" d="m12.472783 340.2766l0 0c0 -11.854553 18.007317 -21.464539 40.220474 -21.464539l0 0c22.213154 0 40.22047 9.609985 40.22047 21.464539l0 0c0 11.854553 -18.007317 21.46457 -40.22047 21.46457l0 0c-22.213156 0 -40.220474 -9.610016 -40.220474 -21.46457z" fill-rule="nonzero"></path><path stroke="#000000" stroke-width="2.0" stroke-linejoin="round" stroke-linecap="butt" d="m12.472783 340.2766l0 0c0 -11.854553 18.007317 -21.464539 40.220474 -21.464539l0 0c22.213154 0 40.22047 9.609985 40.22047 21.464539l0 0c0 11.854553 -18.007317 21.46457 -40.22047 21.46457l0 0c-22.213156 0 -40.220474 -9.610016 -40.220474 -21.46457z" fill-rule="nonzero"></path><path fill="#000000" d="m44.57889 342.30975l1.28125 -0.171875q0.046875 1.21875 0.453125 1.6875q0.40625 0.453125 1.140625 0.453125q0.53125 0 0.921875 -0.25q0.390625 -0.25 0.53125 -0.671875q0.15625 -0.421875 0.15625 -1.34375l0 -7.390625l1.40625 0l0 7.3125q0 1.34375 -0.328125 2.09375q-0.3125 0.734375 -1.03125 1.125q-0.703125 0.390625 -1.65625 0.390625q-1.40625 0 -2.15625 -0.8125q-0.75 -0.8125 -0.71875 -2.421875zm7.5625 -0.40625l1.34375 -0.109375q0.09375 0.796875 0.4375 1.3125q0.359375 0.515625 1.078125 0.84375q0.734375 0.3125 1.65625 0.3125q0.8125 0 1.4375 -0.234375q0.625 -0.25 0.921875 -0.671875q0.3125 -0.421875 0.3125 -0.921875q0 -0.5 -0.296875 -0.875q-0.296875 -0.375 -0.96875 -0.640625q-0.4375 -0.15625 -1.921875 -0.515625q-1.46875 -0.359375 -2.0625 -0.671875q-0.765625 -0.40625 -1.15625 -1.0q-0.375 -0.59375 -0.375 -1.34375q0 -0.8125 0.453125 -1.515625q0.46875 -0.703125 1.359375 -1.0625q0.890625 -0.375 1.96875 -0.375q1.203125 0 2.109375 0.390625q0.90625 0.375 1.390625 1.125q0.5 0.75 0.546875 1.6875l-1.375 0.109375q-0.109375 -1.015625 -0.75 -1.53125q-0.625 -0.53125 -1.859375 -0.53125q-1.28125 0 -1.875 0.484375q-0.59375 0.46875 -0.59375 1.125q0 0.578125 0.421875 0.953125q0.40625 0.375 2.140625 0.765625q1.734375 0.390625 2.375 0.6875q0.9375 0.4375 1.375 1.109375q0.453125 0.65625 0.453125 1.515625q0 0.859375 -0.5 1.625q-0.484375 0.75 -1.40625 1.171875q-0.90625 0.421875 -2.0625 0.421875q-1.453125 0 -2.4375 -0.421875q-0.984375 -0.4375 -1.546875 -1.28125q-0.5625 -0.859375 -0.59375 -1.9375z" fill-rule="nonzero"></path><path fill="#cfe2f3" d="m28.561682 62.385826l0 0c0 -11.854553 16.710005 -21.464565 37.32283 -21.464565l0 0c20.612839 0 37.322838 9.610012 37.322838 21.464565l0 0c0 11.854553 -16.71 21.46457 -37.322838 21.46457l0 0c-20.612827 0 -37.32283 -9.610016 -37.32283 -21.46457z" fill-rule="nonzero"></path><path stroke="#000000" stroke-width="2.0" stroke-linejoin="round" stroke-linecap="butt" d="m28.561682 62.385826l0 0c0 -11.854553 16.710005 -21.464565 37.32283 -21.464565l0 0c20.612839 0 37.322838 9.610012 37.322838 21.464565l0 0c0 11.854553 -16.71 21.46457 -37.322838 21.46457l0 0c-20.612827 0 -37.32283 -9.610016 -37.32283 -21.46457z" fill-rule="nonzero"></path><path fill="#000000" d="m50.842785 64.41895l1.28125 -0.171875q0.046875 1.21875 0.453125 1.6875q0.40625 0.453125 1.140625 0.453125q0.53125 0 0.921875 -0.25q0.390625 -0.25 0.53125 -0.671875q0.15625 -0.421875 0.15625 -1.34375l0 -7.390629l1.40625 0l0 7.312504q0 1.34375 -0.328125 2.09375q-0.3125 0.734375 -1.03125 1.125q-0.703125 0.390625 -1.65625 0.390625q-1.40625 0 -2.15625 -0.8125q-0.75 -0.8125 -0.71875 -2.421875zm12.953125 2.09375q-0.734375 0.609375 -1.40625 0.875q-0.671875 0.25 -1.453125 0.25q-1.28125 0 -1.96875 -0.625q-0.6875 -0.625 -0.6875 -1.59375q0 -0.578125 0.25 -1.046875q0.265625 -0.4687538 0.6875 -0.7500038q0.421875 -0.296875 0.953125 -0.4375q0.375 -0.109375 1.171875 -0.203125q1.59375 -0.1875 2.34375 -0.453125q0.015625 -0.265625 0.015625 -0.34375q0 -0.8125 -0.375 -1.140625q-0.515625 -0.4375 -1.5 -0.4375q-0.9375 0 -1.390625 0.328125q-0.4375 0.3125 -0.640625 1.140625l-1.296875 -0.171875q0.171875 -0.828125 0.578125 -1.328125q0.40625 -0.515625 1.171875 -0.78125q0.765625 -0.28125 1.765625 -0.28125q1.0 0 1.609375 0.234375q0.6249962 0.234375 0.9218712 0.59375q0.296875 0.34375 0.40625 0.890625q0.0625 0.34375 0.0625 1.21875l0 1.7500038q0 1.84375 0.078125 2.328125q0.09375 0.484375 0.34375 0.9375l-1.375 0q-0.20312119 -0.40625 -0.2656212 -0.953125zm-0.109375 -2.9531288q-0.71875 0.296875 -2.15625 0.5000038q-0.8125 0.125 -1.15625 0.265625q-0.328125 0.140625 -0.515625 0.421875q-0.171875 0.28125 -0.171875 0.625q0 0.53125 0.390625 0.890625q0.40625 0.34375 1.171875 0.34375q0.765625 0 1.359375 -0.328125q0.59375 -0.34375 0.875 -0.921875q0.203125 -0.4375 0.203125 -1.3125l0 -0.4843788zm5.354229 3.9062538l-2.96875 -7.781254l1.390625 0l1.671875 4.656254q0.265625 0.765625 0.5 1.578125q0.171875 -0.625 0.484375 -1.484375l1.734375 -4.750004l1.359375 0l-2.953125 7.781254l-1.21875 0zm10.234375 -0.953125q-0.734375 0.609375 -1.40625 0.875q-0.671875 0.25 -1.453125 0.25q-1.28125 0 -1.96875 -0.625q-0.6875 -0.625 -0.6875 -1.59375q0 -0.578125 0.25 -1.046875q0.265625 -0.4687538 0.6875 -0.7500038q0.421875 -0.296875 0.953125 -0.4375q0.375 -0.109375 1.171875 -0.203125q1.59375 -0.1875 2.34375 -0.453125q0.015625 -0.265625 0.015625 -0.34375q0 -0.8125 -0.375 -1.140625q-0.515625 -0.4375 -1.5 -0.4375q-0.9375 0 -1.390625 0.328125q-0.4375 0.3125 -0.640625 1.140625l-1.296875 -0.171875q0.171875 -0.828125 0.578125 -1.328125q0.40625 -0.515625 1.171875 -0.78125q0.765625 -0.28125 1.765625 -0.28125q1.0 0 1.609375 0.234375q0.625 0.234375 0.921875 0.59375q0.296875 0.34375 0.40625 0.890625q0.0625 0.34375 0.0625 1.21875l0 1.7500038q0 1.84375 0.078125 2.328125q0.09375 0.484375 0.34375 0.9375l-1.375 0q-0.203125 -0.40625 -0.265625 -0.953125zm-0.109375 -2.9531288q-0.71875 0.296875 -2.15625 0.5000038q-0.8125 0.125 -1.15625 0.265625q-0.328125 0.140625 -0.515625 0.421875q-0.171875 0.28125 -0.171875 0.625q0 0.53125 0.390625 0.890625q0.40625 0.34375 1.171875 0.34375q0.765625 0 1.359375 -0.328125q0.59375 -0.34375 0.875 -0.921875q0.203125 -0.4375 0.203125 -1.3125l0 -0.4843788z" fill-rule="nonzero"></path><path fill="#cfe2f3" d="m7.8828444 376.3685l0 0c0 -11.854553 18.007318 -21.46457 40.220474 -21.46457l0 0c22.21315 0 40.220474 9.610016 40.220474 21.46457l0 0c0 11.854553 -18.007324 21.46457 -40.220474 21.46457l0 0c-22.213154 0 -40.220474 -9.610016 -40.220474 -21.46457z" fill-rule="nonzero"></path><path stroke="#000000" stroke-width="2.0" stroke-linejoin="round" stroke-linecap="butt" d="m7.8828444 376.3685l0 0c0 -11.854553 18.007318 -21.46457 40.220474 -21.46457l0 0c22.21315 0 40.220474 9.610016 40.220474 21.46457l0 0c0 11.854553 -18.007324 21.46457 -40.220474 21.46457l0 0c-22.213154 0 -40.220474 -9.610016 -40.220474 -21.46457z" fill-rule="nonzero"></path><path fill="#000000" d="m36.227814 381.4485l0 -10.734375l4.046875 0q1.078125 0 1.640625 0.09375q0.78125 0.140625 1.3125 0.515625q0.546875 0.359375 0.875 1.03125q0.328125 0.65625 0.328125 1.46875q0 1.359375 -0.875 2.3125q-0.875 0.953125 -3.15625 0.953125l-2.75 0l0 4.359375l-1.421875 0zm1.421875 -5.625l2.78125 0q1.375 0 1.953125 -0.515625q0.578125 -0.515625 0.578125 -1.453125q0 -0.671875 -0.34375 -1.140625q-0.34375 -0.484375 -0.890625 -0.640625q-0.359375 -0.09375 -1.328125 -0.09375l-2.75 0l0 3.84375zm13.509979 3.125l1.359375 0.15625q-0.3125 1.203125 -1.1875 1.859375q-0.875 0.65625 -2.234375 0.65625q-1.703125 0 -2.703125 -1.046875q-1.0 -1.046875 -1.0 -2.953125q0 -1.953125 1.015625 -3.03125q1.015625 -1.09375 2.625 -1.09375q1.5625 0 2.546875 1.0625q0.984375 1.0625 0.984375 2.984375q0 0.125 0 0.359375l-5.8125 0q0.078125 1.28125 0.71875 1.96875q0.65625 0.671875 1.640625 0.671875q0.71875 0 1.234375 -0.375q0.515625 -0.390625 0.8125 -1.21875zm-4.328125 -2.140625l4.34375 0q-0.09375 -0.984375 -0.5 -1.46875q-0.625 -0.765625 -1.625 -0.765625q-0.921875 0 -1.546875 0.609375q-0.609375 0.609375 -0.671875 1.625zm7.135483 4.640625l0 -7.78125l1.1875 0l0 1.1875q0.453125 -0.828125 0.84375 -1.09375q0.390625 -0.265625 0.84375 -0.265625q0.671875 0 1.359375 0.421875l-0.453125 1.21875q-0.484375 -0.28125 -0.96875 -0.28125q-0.4375 0 -0.78125 0.265625q-0.34375 0.25 -0.484375 0.71875q-0.21875 0.703125 -0.21875 1.53125l0 4.078125l-1.328125 0zm4.8650208 0l0 -10.734375l1.328125 0l0 10.734375l-1.328125 0z" fill-rule="nonzero"></path><path fill="#cfe2f3" d="m325.13385 62.385826l0 0c0 -11.854553 15.715851 -21.464565 35.102356 -21.464565l0 0c19.386505 0 35.102356 9.610012 35.102356 21.464565l0 0c0 11.854553 -15.715851 21.46457 -35.102356 21.46457l0 0c-19.386505 0 -35.102356 -9.610016 -35.102356 -21.46457z" fill-rule="nonzero"></path><path stroke="#000000" stroke-width="2.0" stroke-linejoin="round" stroke-linecap="butt" d="m325.13385 62.385826l0 0c0 -11.854553 15.715851 -21.464565 35.102356 -21.464565l0 0c19.386505 0 35.102356 9.610012 35.102356 21.464565l0 0c0 11.854553 -15.715851 21.46457 -35.102356 21.46457l0 0c-19.386505 0 -35.102356 -9.610016 -35.102356 -21.46457z" fill-rule="nonzero"></path><path fill="#000000" d="m359.68103 63.7002l1.421875 0.3593788q-0.4375 1.75 -1.609375 2.671875q-1.15625 0.921875 -2.828125 0.921875q-1.734375 0 -2.828125 -0.703125q-1.09375 -0.71875 -1.65625 -2.046875q-0.5625 -1.3437538 -0.5625 -2.8906288q0 -1.671875 0.640625 -2.921875q0.640625 -1.25 1.8125 -1.890625q1.1875 -0.65625 2.609375 -0.65625q1.609375 0 2.703125 0.828125q1.109375 0.8125 1.546875 2.296875l-1.40625 0.328125q-0.375 -1.171875 -1.09375 -1.703125q-0.703125 -0.53125 -1.78125 -0.53125q-1.234375 0 -2.0625 0.59375q-0.828125 0.59375 -1.171875 1.59375q-0.328125 1.0 -0.328125 2.0625q0 1.359375 0.390625 2.3906288q0.40625 1.015625 1.234375 1.53125q0.84375 0.5 1.828125 0.5q1.203125 0 2.03125 -0.6875q0.828125 -0.6875 1.109375 -2.0468788zm2.521759 3.9531288l0.640625 -3.125l-1.234375 0l0 -1.0937538l1.453125 0l0.546875 -2.65625l-2.0 0l0 -1.09375l2.21875 0l0.640625 -3.140625l1.09375 0l-0.640625 3.140625l2.3125 0l0.640625 -3.140625l1.09375 0l-0.625 3.140625l1.265625 0l0 1.09375l-1.484375 0l-0.5625 2.65625l2.046875 0l0 1.0937538l-2.265625 0l-0.625 3.125l-1.109375 0l0.640625 -3.125l-2.3125 0l-0.625 3.125l-1.109375 0zm1.953125 -4.218754l2.3125 0l0.546875 -2.65625l-2.3125 0l-0.546875 2.65625z" fill-rule="nonzero"></path><path fill="#cfe2f3" d="m477.6299 62.385826l0 0c0 -11.854553 21.299988 -21.464565 47.5748 -21.464565l0 0c26.274841 0 47.57483 9.610012 47.57483 21.464565l0 0c0 11.854553 -21.299988 21.46457 -47.57483 21.46457l0 0c-26.27481 0 -47.5748 -9.610016 -47.5748 -21.46457z" fill-rule="nonzero"></path><path stroke="#000000" stroke-width="2.0" stroke-linejoin="round" stroke-linecap="butt" d="m477.6299 62.385826l0 0c0 -11.854553 21.299988 -21.464565 47.5748 -21.464565l0 0c26.274841 0 47.57483 9.610012 47.57483 21.464565l0 0c0 11.854553 -21.299988 21.46457 -47.57483 21.46457l0 0c-26.27481 0 -47.5748 -9.610016 -47.5748 -21.46457z" fill-rule="nonzero"></path><path fill="#000000" d="m510.80194 63.7002l1.421875 0.3593788q-0.4375 1.75 -1.609375 2.671875q-1.15625 0.921875 -2.828125 0.921875q-1.734375 0 -2.828125 -0.703125q-1.09375 -0.71875 -1.65625 -2.046875q-0.5625 -1.3437538 -0.5625 -2.8906288q0 -1.671875 0.640625 -2.921875q0.640625 -1.25 1.8125 -1.890625q1.1875 -0.65625 2.609375 -0.65625q1.609375 0 2.703125 0.828125q1.109375 0.8125 1.546875 2.296875l-1.40625 0.328125q-0.375 -1.171875 -1.09375 -1.703125q-0.703125 -0.53125 -1.78125 -0.53125q-1.234375 0 -2.0625 0.59375q-0.828125 0.59375 -1.171875 1.59375q-0.328125 1.0 -0.328125 2.0625q0 1.359375 0.390625 2.3906288q0.40625 1.015625 1.234375 1.53125q0.84375 0.5 1.828125 0.5q1.203125 0 2.03125 -0.6875q0.828125 -0.6875 1.109375 -2.0468788zm2.7249146 3.7656288l0 -10.734379l1.328125 0l0 10.734379l-1.328125 0zm2.8030396 -3.8906288q0 -2.15625 1.203125 -3.203125q1.0 -0.859375 2.4375 -0.859375q1.609375 0 2.625 1.046875q1.015625 1.046875 1.015625 2.90625q0 1.5000038 -0.453125 2.3593788q-0.4375 0.859375 -1.3125 1.34375q-0.859375 0.46875 -1.875 0.46875q-1.625 0 -2.640625 -1.046875q-1.0 -1.046875 -1.0 -3.0156288zm1.359375 0q0 1.5000038 0.640625 2.2500038q0.65625 0.734375 1.640625 0.734375q0.984375 0 1.640625 -0.75q0.65625 -0.75 0.65625 -2.2812538q0 -1.4375 -0.65625 -2.171875q-0.65625 -0.75 -1.640625 -0.75q-0.984375 0 -1.640625 0.734375q-0.640625 0.734375 -0.640625 2.234375zm7.276062 -5.3125l0 -1.53125l1.3125 0l0 1.53125l-1.3125 0zm-1.671875 12.218754l0.25 -1.125q0.390625 0.109375 0.625 0.109375q0.40625 0 0.59375 -0.265625q0.203125 -0.265625 0.203125 -1.34375l0 -8.171879l1.3125 0l0 8.203129q0 1.4375 -0.375 2.0q-0.46875 0.734375 -1.578125 0.734375q-0.53125 0 -1.03125 -0.140625zm10.037415 -3.015625l0 -1.140625q-0.921875 1.3125 -2.46875 1.3125q-0.6875 0 -1.296875 -0.265625q-0.59375 -0.265625 -0.890625 -0.65625q-0.28125 -0.40625 -0.390625 -0.984375q-0.09375 -0.375 -0.09375 -1.21875l0 -4.828129l1.328125 0l0 4.3125q0 1.0312538 0.078125 1.3906288q0.125 0.53125 0.515625 0.828125q0.40625 0.296875 1.0 0.296875q0.59375 0 1.109375 -0.296875q0.53125 -0.3125 0.75 -0.828125q0.21875 -0.53125 0.21875 -1.5312538l0 -4.171875l1.3125 0l0 7.781254l-1.171875 0zm3.026123 0l0 -7.781254l1.1875 0l0 1.1875q0.453125 -0.828125 0.84375 -1.09375q0.390625 -0.265625 0.84375 -0.265625q0.671875 0 1.359375 0.421875l-0.453125 1.21875q-0.484375 -0.28125 -0.96875 -0.28125q-0.4375 0 -0.78125 0.265625q-0.34375 0.25 -0.484375 0.71875q-0.21875 0.703125 -0.21875 1.53125l0 4.078129l-1.328125 0zm10.224365 -2.5l1.359375 0.15625q-0.3125 1.203125 -1.1875 1.859375q-0.875 0.65625 -2.234375 0.65625q-1.703125 0 -2.703125 -1.046875q-1.0 -1.046875 -1.0 -2.9531288q0 -1.953125 1.015625 -3.03125q1.015625 -1.09375 2.625 -1.09375q1.5625 0 2.546875 1.0625q0.984375 1.0625 0.984375 2.984375q0 0.125 0 0.359375l-5.8125 0q0.078125 1.2812538 0.71875 1.9687538q0.65625 0.671875 1.640625 0.671875q0.71875 0 1.234375 -0.375q0.515625 -0.390625 0.8125 -1.21875zm-4.328125 -2.1406288l4.34375 0q-0.09375 -0.984375 -0.5 -1.46875q-0.625 -0.765625 -1.625 -0.765625q-0.921875 0 -1.546875 0.609375q-0.609375 0.609375 -0.671875 1.625z" fill-rule="nonzero"></path><path fill="#cfe2f3" d="m655.07086 42.73491l0 0c0 -11.854553 16.710022 -21.464567 37.322815 -21.464567l0 0c20.612854 0 37.322876 9.610014 37.322876 21.464567l0 0c0 11.854553 -16.710022 21.46457 -37.322876 21.46457l0 0c-20.612793 0 -37.322815 -9.610016 -37.322815 -21.46457z" fill-rule="nonzero"></path><path stroke="#000000" stroke-width="2.0" stroke-linejoin="round" stroke-linecap="butt" d="m655.07086 42.73491l0 0c0 -11.854553 16.710022 -21.464567 37.322815 -21.464567l0 0c20.612854 0 37.322876 9.610014 37.322876 21.464567l0 0c0 11.854553 -16.710022 21.46457 -37.322876 21.46457l0 0c-20.612793 0 -37.322815 -9.610016 -37.322815 -21.46457z" fill-rule="nonzero"></path><path fill="#000000" d="m688.8056 43.596157l0 -1.25l4.546875 -0.015625l0 3.984375q-1.046875 0.84375 -2.171875 1.265625q-1.109375 0.421875 -2.28125 0.421875q-1.578125 0 -2.875 -0.671875q-1.296875 -0.6875 -1.953125 -1.96875q-0.65625 -1.28125 -0.65625 -2.859375q0 -1.578125 0.65625 -2.9375q0.65625 -1.359375 1.890625 -2.015625q1.234375 -0.65625 2.828125 -0.65625q1.171875 0 2.109375 0.375q0.9375 0.375 1.46875 1.0625q0.546875 0.671875 0.8125 1.75l-1.28125 0.34375q-0.234375 -0.8125 -0.59375 -1.28125q-0.359375 -0.46875 -1.03125 -0.75q-0.65625 -0.28125 -1.46875 -0.28125q-0.984375 0 -1.703125 0.296875q-0.703125 0.296875 -1.140625 0.78125q-0.421875 0.484375 -0.671875 1.0625q-0.40625 1.0 -0.40625 2.15625q0 1.4375 0.484375 2.40625q0.5 0.96875 1.4375 1.4375q0.953125 0.46875 2.015625 0.46875q0.921875 0 1.796875 -0.359375q0.890625 -0.359375 1.34375 -0.765625l0 -2.0l-3.15625 0zm5.7125854 0.328125q0 -2.15625 1.203125 -3.203125q1.0 -0.859375 2.4375 -0.859375q1.609375 0 2.625 1.046875q1.015625 1.046875 1.015625 2.90625q0 1.5 -0.453125 2.359375q-0.4375 0.859375 -1.3125 1.34375q-0.859375 0.46875 -1.875 0.46875q-1.625 0 -2.640625 -1.046875q-1.0 -1.046875 -1.0 -3.015625zm1.359375 0q0 1.5 0.640625 2.25q0.65625 0.734375 1.640625 0.734375q0.984375 0 1.640625 -0.75q0.65625 -0.75 0.65625 -2.28125q0 -1.4375 -0.65625 -2.171875q-0.65625 -0.75 -1.640625 -0.75q-0.984375 0 -1.640625 0.734375q-0.640625 0.734375 -0.640625 2.234375z" fill-rule="nonzero"></path><path fill="#cfe2f3" d="m634.56696 230.72966l0 0c0 -11.854553 21.299927 -21.46457 47.574768 -21.46457l0 0c26.274841 0 47.57483 9.610016 47.57483 21.46457l0 0c0 11.854553 -21.299988 21.46457 -47.57483 21.46457l0 0c-26.274841 0 -47.574768 -9.610016 -47.574768 -21.46457z" fill-rule="nonzero"></path><path stroke="#000000" stroke-width="2.0" stroke-linejoin="round" stroke-linecap="butt" d="m634.56696 230.72966l0 0c0 -11.854553 21.299927 -21.46457 47.574768 -21.46457l0 0c26.274841 0 47.57483 9.610016 47.57483 21.46457l0 0c0 11.854553 -21.299988 21.46457 -47.57483 21.46457l0 0c-26.274841 0 -47.574768 -9.610016 -47.574768 -21.46457z" fill-rule="nonzero"></path><path fill="#000000" d="m662.14636 235.80966l0 -10.734375l7.765625 0l0 1.265625l-6.34375 0l0 3.28125l5.9375 0l0 1.265625l-5.9375 0l0 3.65625l6.59375 0l0 1.265625l-8.015625 0zm9.556885 0l0 -7.78125l1.1875 0l0 1.1875q0.453125 -0.828125 0.84375 -1.09375q0.390625 -0.265625 0.84375 -0.265625q0.671875 0 1.359375 0.421875l-0.453125 1.21875q-0.484375 -0.28125 -0.96875 -0.28125q-0.4375 0 -0.78125 0.265625q-0.34375 0.25 -0.484375 0.71875q-0.21875 0.703125 -0.21875 1.53125l0 4.078125l-1.328125 0zm4.86499 0l0 -10.734375l1.328125 0l0 10.734375l-1.328125 0zm8.36554 -0.953125q-0.734375 0.609375 -1.40625 0.875q-0.671875 0.25 -1.453125 0.25q-1.28125 0 -1.96875 -0.625q-0.6875 -0.625 -0.6875 -1.59375q0 -0.578125 0.25 -1.046875q0.265625 -0.46875 0.6875 -0.75q0.421875 -0.296875 0.953125 -0.4375q0.375 -0.109375 1.171875 -0.203125q1.59375 -0.1875 2.34375 -0.453125q0.015625 -0.265625 0.015625 -0.34375q0 -0.8125 -0.375 -1.140625q-0.515625 -0.4375 -1.5 -0.4375q-0.9375 0 -1.390625 0.328125q-0.4375 0.3125 -0.640625 1.140625l-1.296875 -0.171875q0.171875 -0.828125 0.578125 -1.328125q0.40625 -0.515625 1.171875 -0.78125q0.765625 -0.28125 1.765625 -0.28125q1.0 0 1.609375 0.234375q0.625 0.234375 0.921875 0.59375q0.296875 0.34375 0.40625 0.890625q0.0625 0.34375 0.0625 1.21875l0 1.75q0 1.84375 0.078125 2.328125q0.09375 0.484375 0.34375 0.9375l-1.375 0q-0.203125 -0.40625 -0.265625 -0.953125zm-0.109375 -2.953125q-0.71875 0.296875 -2.15625 0.5q-0.8125 0.125 -1.15625 0.265625q-0.328125 0.140625 -0.515625 0.421875q-0.171875 0.28125 -0.171875 0.625q0 0.53125 0.390625 0.890625q0.40625 0.34375 1.171875 0.34375q0.765625 0 1.359375 -0.328125q0.59375 -0.34375 0.875 -0.921875q0.203125 -0.4375 0.203125 -1.3125l0 -0.484375zm3.182373 3.90625l0 -7.78125l1.1875 0l0 1.109375q0.859375 -1.28125 2.484375 -1.28125q0.703125 0 1.28125 0.25q0.59375 0.25 0.890625 0.671875q0.296875 0.40625 0.40625 0.96875q0.078125 0.359375 0.078125 1.28125l0 4.78125l-1.328125 0l0 -4.734375q0 -0.796875 -0.15625 -1.1875q-0.140625 -0.40625 -0.53125 -0.640625q-0.390625 -0.25 -0.921875 -0.25q-0.84375 0 -1.453125 0.53125q-0.609375 0.53125 -0.609375 2.03125l0 4.25l-1.328125 0zm7.916687 0.640625l1.28125 0.1875q0.078125 0.59375 0.4375 0.875q0.5 0.359375 1.34375 0.359375q0.921875 0 1.421875 -0.375q0.5 -0.359375 0.671875 -1.015625q0.09375 -0.40625 0.09375 -1.6875q-0.859375 1.015625 -2.15625 1.015625q-1.609375 0 -2.484375 -1.15625q-0.875 -1.15625 -0.875 -2.78125q0 -1.109375 0.40625 -2.046875q0.40625 -0.9375 1.15625 -1.453125q0.765625 -0.515625 1.8125 -0.515625q1.375 0 2.265625 1.109375l0 -0.9375l1.21875 0l0 6.71875q0 1.828125 -0.375 2.578125q-0.375 0.765625 -1.171875 1.203125q-0.796875 0.4375 -1.96875 0.4375q-1.390625 0 -2.25 -0.625q-0.859375 -0.625 -0.828125 -1.890625zm1.09375 -4.671875q0 1.53125 0.59375 2.234375q0.609375 0.703125 1.53125 0.703125q0.90625 0 1.515625 -0.6875q0.625 -0.703125 0.625 -2.203125q0 -1.421875 -0.640625 -2.140625q-0.625 -0.734375 -1.515625 -0.734375q-0.890625 0 -1.5 0.71875q-0.609375 0.703125 -0.609375 2.109375z" fill-rule="nonzero"></path></g></svg>

