<?xml version="1.0" encoding="UTF-8"?>
<!DOCTYPE svg PUBLIC "-//W3C//DTD SVG 1.1//EN" "http://www.w3.org/Graphics/SVG/1.1/DTD/svg11.dtd">
<svg version="1.1" xmlns="http://www.w3.org/2000/svg" xmlns:xlink="http://www.w3.org/1999/xlink" x="0" y="0" width="900" height="535.2" viewBox="0, 0, 750, 446">
  <g id="graphs">
    <g>
      <g>
        <path d="M81.429,204.5 L81.429,335.5" fill-opacity="0" stroke="#A8A8A8" stroke-width="1"/>
        <path d="M78.429,335.5 L81.429,343.5 L84.429,335.5 z" fill="#A8A8A8" fill-opacity="1" stroke="#A8A8A8" stroke-width="1" stroke-opacity="1"/>
      </g>
      <g>
        <path d="M51,234.5 L182,234.5" fill-opacity="0" stroke="#A8A8A8" stroke-width="1"/>
        <path d="M182,237.5 L190,234.5 L182,231.5 z" fill="#A8A8A8" fill-opacity="1" stroke="#A8A8A8" stroke-width="1" stroke-opacity="1"/>
      </g>
      <text transform="matrix(1, 0, 0, 1, 196.716, 248.5)">
        <tspan x="-6.216" y="8.5" font-family="HelveticaNeue" font-size="24" fill="#A8A8A8">x</tspan>
      </text>
      <text transform="matrix(1, -0.008, 0.008, 1, 87.5, 358.549)">
        <tspan x="-6" y="8.5" font-family="HelveticaNeue" font-size="24" fill="#A8A8A8">y</tspan>
      </text>
      <path d="M81.89,304.5 L87,304.5" fill-opacity="0" stroke="#A8A8A8" stroke-width="1"/>
      <path d="M151.25,234.5 L151.25,242" fill-opacity="0" stroke="#A8A8A8" stroke-width="1"/>
      <text transform="matrix(1, 0, 0, 1, 69.685, 218.5)">
        <tspan x="-6.672" y="8.5" font-family="HelveticaNeue-Thin" font-size="24" fill="#A8A8A8">0</tspan>
      </text>
      <text transform="matrix(1, 0, 0, 1, 69.685, 304)">
        <tspan x="-6.672" y="8.5" font-family="HelveticaNeue-Thin" font-size="24" fill="#A8A8A8">1</tspan>
      </text>
      <text transform="matrix(1, 0, 0, 1, 150.75, 218.5)">
        <tspan x="-6.672" y="8.5" font-family="HelveticaNeue-Thin" font-size="24" fill="#A8A8A8">1</tspan>
      </text>
    </g>
    <g>
      <path d="M327.212,204.5 L327.212,335.5" fill-opacity="0" stroke="#A8A8A8" stroke-width="1"/>
      <path d="M324.212,335.5 L327.212,343.5 L330.212,335.5 z" fill="#A8A8A8" fill-opacity="1" stroke="#A8A8A8" stroke-width="1" stroke-opacity="1"/>
    </g>
    <g>
      <path d="M296.784,234.5 L427.784,234.5" fill-opacity="0" stroke="#A8A8A8" stroke-width="1"/>
      <path d="M427.784,237.5 L435.784,234.5 L427.784,231.5 z" fill="#A8A8A8" fill-opacity="1" stroke="#A8A8A8" stroke-width="1" stroke-opacity="1"/>
    </g>
    <path d="M327.674,304.5 L332.784,304.5" fill-opacity="0" stroke="#A8A8A8" stroke-width="1"/>
    <path d="M397.034,234.5 L397.034,242" fill-opacity="0" stroke="#A8A8A8" stroke-width="1"/>
    <g>
      <path d="M577.996,204.5 L577.996,335.5" fill-opacity="0" stroke="#A8A8A8" stroke-width="1"/>
      <path d="M574.996,335.5 L577.996,343.5 L580.996,335.5 z" fill="#A8A8A8" fill-opacity="1" stroke="#A8A8A8" stroke-width="1" stroke-opacity="1"/>
    </g>
    <g>
      <path d="M547.568,234.5 L678.568,234.5" fill-opacity="0" stroke="#A8A8A8" stroke-width="1"/>
      <path d="M678.568,237.5 L686.568,234.5 L678.568,231.5 z" fill="#A8A8A8" fill-opacity="1" stroke="#A8A8A8" stroke-width="1" stroke-opacity="1"/>
    </g>
    <path d="M578.458,304.5 L583.568,304.5" fill-opacity="0" stroke="#A8A8A8" stroke-width="1"/>
    <path d="M647.818,234.5 L647.818,242" fill-opacity="0" stroke="#A8A8A8" stroke-width="1"/>
  </g>
  <g id="unit_drawings">
    <g>
      <path d="M82.5,235.5 L151.5,235.5 L151.5,304.5 L82.5,304.5 L82.5,235.5 z" fill-opacity="0" stroke="#FFBE9D" stroke-width="1" stroke-dasharray="3,2"/>
      <g>
        <path d="M102.566,287.872 C106.827,287.872 110.28,284.341 110.28,279.991 C110.28,275.642 106.827,272.116 102.566,272.116 C98.316,272.116 94.86,275.642 94.86,279.991 C94.86,284.341 98.316,287.872 102.566,287.872 M93.104,279.991 C93.104,274.652 97.349,270.333 102.566,270.333 C107.796,270.333 112.041,274.652 112.041,279.991 C112.041,285.336 107.796,289.653 102.566,289.653 C97.349,289.653 93.104,285.335 93.104,279.991" fill="#FFBE9D"/>
        <path d="M130.434,287.963 C134.684,287.963 138.136,284.437 138.136,280.088 C138.136,275.738 134.685,272.207 130.434,272.207 C126.173,272.207 122.714,275.738 122.714,280.088 C122.714,284.437 126.173,287.963 130.434,287.963 M120.959,280.088 C120.959,274.743 125.204,270.429 130.434,270.429 C135.646,270.429 139.895,274.744 139.895,280.088 C139.895,285.427 135.646,289.749 130.434,289.749 C125.204,289.749 120.959,285.427 120.959,280.088" fill="#FFBE9D"/>
        <path d="M120.985,256.51 C122.947,256.51 124.546,254.89 124.546,252.884 C124.546,250.881 122.947,249.251 120.985,249.251 C119.02,249.251 117.423,250.882 117.423,252.884 C117.423,254.891 119.02,256.51 120.985,256.51" fill="#FFBE9D"/>
        <path d="M121.133,265.326 C120.615,265.337 120.061,265.073 119.653,264.414 L117.339,260.724 L112.568,265.546 L116.989,267.924 C118.808,268.81 118.539,270.444 118.539,270.444 L118.539,280.663 C118.539,281.822 117.624,282.765 116.49,282.765 C115.352,282.765 114.439,281.82 114.439,280.663 L114.439,272.482 L106.769,268.132 C105.855,267.609 105.235,266.61 105.235,265.474 C105.235,264.692 105.521,263.972 105.999,263.437 L113.525,255.742 C114.459,254.667 115.763,254.836 115.763,254.836 C117.339,254.836 118.169,256.243 118.169,256.243 L122.077,262.491 L128.011,262.48 C130.146,262.48 130.146,265.325 128.011,265.325 L121.133,265.325 z" fill="#FFBE9D"/>
      </g>
    </g>
    <path d="M88.182,110.594 L88.182,124.516 L91.557,124.516 Q91.908,124.516 92.061,124.65 Q92.213,124.785 92.213,125.008 Q92.213,125.219 92.061,125.359 Q91.908,125.5 91.557,125.5 L83.822,125.5 Q83.471,125.5 83.318,125.359 Q83.166,125.219 83.166,125.008 Q83.166,124.785 83.318,124.65 Q83.471,124.516 83.822,124.516 L87.197,124.516 L87.197,111.953 L83.986,112.961 Q83.752,113.031 83.646,113.031 Q83.471,113.031 83.324,112.885 Q83.178,112.738 83.178,112.539 Q83.178,112.363 83.295,112.211 Q83.389,112.117 83.682,112.012 z" fill="#000000"/>
    <path d="M121.018,116.934 L121.018,119.371 Q121.018,122.547 119.506,124.398 Q118.322,125.852 116.518,125.852 Q115.65,125.852 114.883,125.506 Q114.115,125.16 113.576,124.539 Q113.236,124.152 112.832,123.297 Q112.428,122.441 112.252,121.727 Q111.982,120.719 111.982,119.371 L111.982,116.934 Q111.982,113.746 113.494,111.895 Q114.678,110.441 116.482,110.441 Q117.361,110.441 118.123,110.787 Q118.885,111.133 119.424,111.754 Q119.775,112.152 120.174,113.008 Q120.572,113.863 120.76,114.566 Q121.018,115.574 121.018,116.934 z M120.033,117.062 Q120.033,115.668 119.641,114.467 Q119.248,113.266 118.756,112.551 Q118.463,112.141 117.994,111.848 Q117.326,111.438 116.494,111.438 Q114.842,111.438 113.904,113.125 Q112.967,114.812 112.967,117.062 L112.967,119.23 Q112.967,120.625 113.359,121.832 Q113.752,123.039 114.256,123.754 Q114.537,124.152 115.006,124.445 Q115.674,124.867 116.518,124.867 Q118.158,124.867 119.096,123.174 Q120.033,121.48 120.033,119.23 z" fill="#000000"/>
    <path d="M149.822,116.934 L149.822,119.371 Q149.822,122.547 148.311,124.398 Q147.127,125.852 145.322,125.852 Q144.455,125.852 143.688,125.506 Q142.92,125.16 142.381,124.539 Q142.041,124.152 141.637,123.297 Q141.232,122.441 141.057,121.727 Q140.787,120.719 140.787,119.371 L140.787,116.934 Q140.787,113.746 142.299,111.895 Q143.482,110.441 145.287,110.441 Q146.166,110.441 146.928,110.787 Q147.689,111.133 148.229,111.754 Q148.58,112.152 148.979,113.008 Q149.377,113.863 149.564,114.566 Q149.822,115.574 149.822,116.934 z M148.838,117.062 Q148.838,115.668 148.445,114.467 Q148.053,113.266 147.561,112.551 Q147.268,112.141 146.799,111.848 Q146.131,111.438 145.299,111.438 Q143.646,111.438 142.709,113.125 Q141.771,114.812 141.771,117.062 L141.771,119.23 Q141.771,120.625 142.164,121.832 Q142.557,123.039 143.061,123.754 Q143.342,124.152 143.811,124.445 Q144.479,124.867 145.322,124.867 Q146.963,124.867 147.9,123.174 Q148.838,121.48 148.838,119.23 z" fill="#000000"/>
    <path d="M92.213,143.934 L92.213,146.371 Q92.213,149.547 90.701,151.398 Q89.518,152.852 87.713,152.852 Q86.846,152.852 86.078,152.506 Q85.311,152.16 84.771,151.539 Q84.432,151.152 84.027,150.297 Q83.623,149.441 83.447,148.727 Q83.178,147.719 83.178,146.371 L83.178,143.934 Q83.178,140.746 84.689,138.895 Q85.873,137.441 87.678,137.441 Q88.557,137.441 89.318,137.787 Q90.08,138.133 90.619,138.754 Q90.971,139.152 91.369,140.008 Q91.768,140.863 91.955,141.566 Q92.213,142.574 92.213,143.934 z M91.229,144.062 Q91.229,142.668 90.836,141.467 Q90.443,140.266 89.951,139.551 Q89.658,139.141 89.189,138.848 Q88.521,138.438 87.689,138.438 Q86.037,138.438 85.1,140.125 Q84.162,141.812 84.162,144.062 L84.162,146.23 Q84.162,147.625 84.555,148.832 Q84.947,150.039 85.451,150.754 Q85.732,151.152 86.201,151.445 Q86.869,151.867 87.713,151.867 Q89.354,151.867 90.291,150.174 Q91.229,148.48 91.229,146.23 z" fill="#000000"/>
    <path d="M116.986,137.594 L116.986,151.516 L120.361,151.516 Q120.713,151.516 120.865,151.65 Q121.018,151.785 121.018,152.008 Q121.018,152.219 120.865,152.359 Q120.713,152.5 120.361,152.5 L112.627,152.5 Q112.275,152.5 112.123,152.359 Q111.971,152.219 111.971,152.008 Q111.971,151.785 112.123,151.65 Q112.275,151.516 112.627,151.516 L116.002,151.516 L116.002,138.953 L112.791,139.961 Q112.557,140.031 112.451,140.031 Q112.275,140.031 112.129,139.885 Q111.982,139.738 111.982,139.539 Q111.982,139.363 112.1,139.211 Q112.193,139.117 112.486,139.012 z" fill="#000000"/>
    <path d="M149.822,143.934 L149.822,146.371 Q149.822,149.547 148.311,151.398 Q147.127,152.852 145.322,152.852 Q144.455,152.852 143.688,152.506 Q142.92,152.16 142.381,151.539 Q142.041,151.152 141.637,150.297 Q141.232,149.441 141.057,148.727 Q140.787,147.719 140.787,146.371 L140.787,143.934 Q140.787,140.746 142.299,138.895 Q143.482,137.441 145.287,137.441 Q146.166,137.441 146.928,137.787 Q147.689,138.133 148.229,138.754 Q148.58,139.152 148.979,140.008 Q149.377,140.863 149.564,141.566 Q149.822,142.574 149.822,143.934 z M148.838,144.062 Q148.838,142.668 148.445,141.467 Q148.053,140.266 147.561,139.551 Q147.268,139.141 146.799,138.848 Q146.131,138.438 145.299,138.438 Q143.646,138.438 142.709,140.125 Q141.771,141.812 141.771,144.062 L141.771,146.23 Q141.771,147.625 142.164,148.832 Q142.557,150.039 143.061,150.754 Q143.342,151.152 143.811,151.445 Q144.479,151.867 145.322,151.867 Q146.963,151.867 147.9,150.174 Q148.838,148.48 148.838,146.23 z" fill="#000000"/>
    <path d="M92.213,170.934 L92.213,173.371 Q92.213,176.547 90.701,178.398 Q89.518,179.852 87.713,179.852 Q86.846,179.852 86.078,179.506 Q85.311,179.16 84.771,178.539 Q84.432,178.152 84.027,177.297 Q83.623,176.441 83.447,175.727 Q83.178,174.719 83.178,173.371 L83.178,170.934 Q83.178,167.746 84.689,165.895 Q85.873,164.441 87.678,164.441 Q88.557,164.441 89.318,164.787 Q90.08,165.133 90.619,165.754 Q90.971,166.152 91.369,167.008 Q91.768,167.863 91.955,168.566 Q92.213,169.574 92.213,170.934 z M91.229,171.062 Q91.229,169.668 90.836,168.467 Q90.443,167.266 89.951,166.551 Q89.658,166.141 89.189,165.848 Q88.521,165.438 87.689,165.438 Q86.037,165.438 85.1,167.125 Q84.162,168.812 84.162,171.062 L84.162,173.23 Q84.162,174.625 84.555,175.832 Q84.947,177.039 85.451,177.754 Q85.732,178.152 86.201,178.445 Q86.869,178.867 87.713,178.867 Q89.354,178.867 90.291,177.174 Q91.229,175.48 91.229,173.23 z" fill="#000000"/>
    <path d="M121.018,170.934 L121.018,173.371 Q121.018,176.547 119.506,178.398 Q118.322,179.852 116.518,179.852 Q115.65,179.852 114.883,179.506 Q114.115,179.16 113.576,178.539 Q113.236,178.152 112.832,177.297 Q112.428,176.441 112.252,175.727 Q111.982,174.719 111.982,173.371 L111.982,170.934 Q111.982,167.746 113.494,165.895 Q114.678,164.441 116.482,164.441 Q117.361,164.441 118.123,164.787 Q118.885,165.133 119.424,165.754 Q119.775,166.152 120.174,167.008 Q120.572,167.863 120.76,168.566 Q121.018,169.574 121.018,170.934 z M120.033,171.062 Q120.033,169.668 119.641,168.467 Q119.248,167.266 118.756,166.551 Q118.463,166.141 117.994,165.848 Q117.326,165.438 116.494,165.438 Q114.842,165.438 113.904,167.125 Q112.967,168.812 112.967,171.062 L112.967,173.23 Q112.967,174.625 113.359,175.832 Q113.752,177.039 114.256,177.754 Q114.537,178.152 115.006,178.445 Q115.674,178.867 116.518,178.867 Q118.158,178.867 119.096,177.174 Q120.033,175.48 120.033,173.23 z" fill="#000000"/>
    <path d="M145.791,164.594 L145.791,178.516 L149.166,178.516 Q149.518,178.516 149.67,178.65 Q149.822,178.785 149.822,179.008 Q149.822,179.219 149.67,179.359 Q149.518,179.5 149.166,179.5 L141.432,179.5 Q141.08,179.5 140.928,179.359 Q140.775,179.219 140.775,179.008 Q140.775,178.785 140.928,178.65 Q141.08,178.516 141.432,178.516 L144.807,178.516 L144.807,165.953 L141.596,166.961 Q141.361,167.031 141.256,167.031 Q141.08,167.031 140.934,166.885 Q140.787,166.738 140.787,166.539 Q140.787,166.363 140.904,166.211 Q140.998,166.117 141.291,166.012 z" fill="#000000"/>
    <path d="M283.014,125.5 L281.467,125.5 L278.678,115.762 L275.947,125.5 L274.4,125.5 L272.947,112.773 L272.584,112.773 Q272.232,112.773 272.08,112.639 Q271.928,112.504 271.928,112.281 Q271.928,112.059 272.08,111.924 Q272.232,111.789 272.584,111.789 L276.24,111.789 Q276.604,111.789 276.756,111.924 Q276.908,112.059 276.908,112.281 Q276.908,112.504 276.756,112.639 Q276.604,112.773 276.24,112.773 L273.943,112.773 L275.244,124.375 L277.904,114.824 L279.416,114.824 L282.146,124.375 L283.424,112.773 L281.115,112.773 Q280.764,112.773 280.611,112.639 Q280.459,112.504 280.459,112.281 Q280.459,112.059 280.611,111.924 Q280.764,111.789 281.115,111.789 L284.748,111.789 Q285.111,111.789 285.264,111.924 Q285.416,112.059 285.416,112.281 Q285.416,112.504 285.264,112.639 Q285.111,112.773 284.748,112.773 L284.385,112.773 z" fill="#000000"/>
    <path d="M312.018,116.934 L312.018,119.371 Q312.018,122.547 310.506,124.398 Q309.322,125.852 307.518,125.852 Q306.65,125.852 305.883,125.506 Q305.115,125.16 304.576,124.539 Q304.236,124.152 303.832,123.297 Q303.428,122.441 303.252,121.727 Q302.982,120.719 302.982,119.371 L302.982,116.934 Q302.982,113.746 304.494,111.895 Q305.678,110.441 307.482,110.441 Q308.361,110.441 309.123,110.787 Q309.885,111.133 310.424,111.754 Q310.775,112.152 311.174,113.008 Q311.572,113.863 311.76,114.566 Q312.018,115.574 312.018,116.934 z M311.033,117.062 Q311.033,115.668 310.641,114.467 Q310.248,113.266 309.756,112.551 Q309.463,112.141 308.994,111.848 Q308.326,111.438 307.494,111.438 Q305.842,111.438 304.904,113.125 Q303.967,114.812 303.967,117.062 L303.967,119.23 Q303.967,120.625 304.359,121.832 Q304.752,123.039 305.256,123.754 Q305.537,124.152 306.006,124.445 Q306.674,124.867 307.518,124.867 Q309.158,124.867 310.096,123.174 Q311.033,121.48 311.033,119.23 z" fill="#000000"/>
    <path d="M340.822,116.934 L340.822,119.371 Q340.822,122.547 339.311,124.398 Q338.127,125.852 336.322,125.852 Q335.455,125.852 334.688,125.506 Q333.92,125.16 333.381,124.539 Q333.041,124.152 332.637,123.297 Q332.232,122.441 332.057,121.727 Q331.787,120.719 331.787,119.371 L331.787,116.934 Q331.787,113.746 333.299,111.895 Q334.482,110.441 336.287,110.441 Q337.166,110.441 337.928,110.787 Q338.689,111.133 339.229,111.754 Q339.58,112.152 339.979,113.008 Q340.377,113.863 340.564,114.566 Q340.822,115.574 340.822,116.934 z M339.838,117.062 Q339.838,115.668 339.445,114.467 Q339.053,113.266 338.561,112.551 Q338.268,112.141 337.799,111.848 Q337.131,111.438 336.299,111.438 Q334.646,111.438 333.709,113.125 Q332.771,114.812 332.771,117.062 L332.771,119.23 Q332.771,120.625 333.164,121.832 Q333.557,123.039 334.061,123.754 Q334.342,124.152 334.811,124.445 Q335.479,124.867 336.322,124.867 Q337.963,124.867 338.9,123.174 Q339.838,121.48 339.838,119.23 z" fill="#000000"/>
    <path d="M283.213,143.934 L283.213,146.371 Q283.213,149.547 281.701,151.398 Q280.518,152.852 278.713,152.852 Q277.846,152.852 277.078,152.506 Q276.311,152.16 275.771,151.539 Q275.432,151.152 275.027,150.297 Q274.623,149.441 274.447,148.727 Q274.178,147.719 274.178,146.371 L274.178,143.934 Q274.178,140.746 275.689,138.895 Q276.873,137.441 278.678,137.441 Q279.557,137.441 280.318,137.787 Q281.08,138.133 281.619,138.754 Q281.971,139.152 282.369,140.008 Q282.768,140.863 282.955,141.566 Q283.213,142.574 283.213,143.934 z M282.229,144.062 Q282.229,142.668 281.836,141.467 Q281.443,140.266 280.951,139.551 Q280.658,139.141 280.189,138.848 Q279.521,138.438 278.689,138.438 Q277.037,138.438 276.1,140.125 Q275.162,141.812 275.162,144.062 L275.162,146.23 Q275.162,147.625 275.555,148.832 Q275.947,150.039 276.451,150.754 Q276.732,151.152 277.201,151.445 Q277.869,151.867 278.713,151.867 Q280.354,151.867 281.291,150.174 Q282.229,148.48 282.229,146.23 z" fill="#000000"/>
    <path d="M310.834,145.867 L304.307,145.867 L304.307,151.516 L305.631,151.516 Q305.982,151.516 306.135,151.65 Q306.287,151.785 306.287,152.008 Q306.287,152.219 306.135,152.359 Q305.982,152.5 305.631,152.5 L302.209,152.5 Q301.857,152.5 301.705,152.359 Q301.553,152.219 301.553,152.008 Q301.553,151.785 301.705,151.65 Q301.857,151.516 302.209,151.516 L303.322,151.516 L303.322,139.773 L302.713,139.773 Q302.35,139.773 302.197,139.639 Q302.045,139.504 302.045,139.281 Q302.045,139.059 302.197,138.924 Q302.35,138.789 302.713,138.789 L305.631,138.789 Q305.982,138.789 306.135,138.924 Q306.287,139.059 306.287,139.281 Q306.287,139.504 306.135,139.639 Q305.982,139.773 305.631,139.773 L304.307,139.773 L304.307,144.883 L310.834,144.883 L310.834,139.773 L309.521,139.773 Q309.17,139.773 309.018,139.639 Q308.865,139.504 308.865,139.281 Q308.865,139.059 309.012,138.924 Q309.158,138.789 309.521,138.789 L312.439,138.789 Q312.803,138.789 312.955,138.924 Q313.107,139.059 313.107,139.281 Q313.107,139.504 312.955,139.639 Q312.803,139.773 312.439,139.773 L311.83,139.773 L311.83,151.516 L312.943,151.516 Q313.295,151.516 313.447,151.65 Q313.6,151.785 313.6,152.008 Q313.6,152.219 313.447,152.359 Q313.295,152.5 312.943,152.5 L309.521,152.5 Q309.17,152.5 309.018,152.359 Q308.865,152.219 308.865,152.008 Q308.865,151.785 309.012,151.65 Q309.158,151.516 309.521,151.516 L310.834,151.516 z" fill="#000000"/>
    <path d="M340.822,143.934 L340.822,146.371 Q340.822,149.547 339.311,151.398 Q338.127,152.852 336.322,152.852 Q335.455,152.852 334.688,152.506 Q333.92,152.16 333.381,151.539 Q333.041,151.152 332.637,150.297 Q332.232,149.441 332.057,148.727 Q331.787,147.719 331.787,146.371 L331.787,143.934 Q331.787,140.746 333.299,138.895 Q334.482,137.441 336.287,137.441 Q337.166,137.441 337.928,137.787 Q338.689,138.133 339.229,138.754 Q339.58,139.152 339.979,140.008 Q340.377,140.863 340.564,141.566 Q340.822,142.574 340.822,143.934 z M339.838,144.062 Q339.838,142.668 339.445,141.467 Q339.053,140.266 338.561,139.551 Q338.268,139.141 337.799,138.848 Q337.131,138.438 336.299,138.438 Q334.646,138.438 333.709,140.125 Q332.771,141.812 332.771,144.062 L332.771,146.23 Q332.771,147.625 333.164,148.832 Q333.557,150.039 334.061,150.754 Q334.342,151.152 334.811,151.445 Q335.479,151.867 336.322,151.867 Q337.963,151.867 338.9,150.174 Q339.838,148.48 339.838,146.23 z" fill="#000000"/>
    <path d="M283.213,170.934 L283.213,173.371 Q283.213,176.547 281.701,178.398 Q280.518,179.852 278.713,179.852 Q277.846,179.852 277.078,179.506 Q276.311,179.16 275.771,178.539 Q275.432,178.152 275.027,177.297 Q274.623,176.441 274.447,175.727 Q274.178,174.719 274.178,173.371 L274.178,170.934 Q274.178,167.746 275.689,165.895 Q276.873,164.441 278.678,164.441 Q279.557,164.441 280.318,164.787 Q281.08,165.133 281.619,165.754 Q281.971,166.152 282.369,167.008 Q282.768,167.863 282.955,168.566 Q283.213,169.574 283.213,170.934 z M282.229,171.062 Q282.229,169.668 281.836,168.467 Q281.443,167.266 280.951,166.551 Q280.658,166.141 280.189,165.848 Q279.521,165.438 278.689,165.438 Q277.037,165.438 276.1,167.125 Q275.162,168.812 275.162,171.062 L275.162,173.23 Q275.162,174.625 275.555,175.832 Q275.947,177.039 276.451,177.754 Q276.732,178.152 277.201,178.445 Q277.869,178.867 278.713,178.867 Q280.354,178.867 281.291,177.174 Q282.229,175.48 282.229,173.23 z" fill="#000000"/>
    <path d="M312.018,170.934 L312.018,173.371 Q312.018,176.547 310.506,178.398 Q309.322,179.852 307.518,179.852 Q306.65,179.852 305.883,179.506 Q305.115,179.16 304.576,178.539 Q304.236,178.152 303.832,177.297 Q303.428,176.441 303.252,175.727 Q302.982,174.719 302.982,173.371 L302.982,170.934 Q302.982,167.746 304.494,165.895 Q305.678,164.441 307.482,164.441 Q308.361,164.441 309.123,164.787 Q309.885,165.133 310.424,165.754 Q310.775,166.152 311.174,167.008 Q311.572,167.863 311.76,168.566 Q312.018,169.574 312.018,170.934 z M311.033,171.062 Q311.033,169.668 310.641,168.467 Q310.248,167.266 309.756,166.551 Q309.463,166.141 308.994,165.848 Q308.326,165.438 307.494,165.438 Q305.842,165.438 304.904,167.125 Q303.967,168.812 303.967,171.062 L303.967,173.23 Q303.967,174.625 304.359,175.832 Q304.752,177.039 305.256,177.754 Q305.537,178.152 306.006,178.445 Q306.674,178.867 307.518,178.867 Q309.158,178.867 310.096,177.174 Q311.033,175.48 311.033,173.23 z" fill="#000000"/>
    <path d="M336.791,164.594 L336.791,178.516 L340.166,178.516 Q340.518,178.516 340.67,178.65 Q340.822,178.785 340.822,179.008 Q340.822,179.219 340.67,179.359 Q340.518,179.5 340.166,179.5 L332.432,179.5 Q332.08,179.5 331.928,179.359 Q331.775,179.219 331.775,179.008 Q331.775,178.785 331.928,178.65 Q332.08,178.516 332.432,178.516 L335.807,178.516 L335.807,165.953 L332.596,166.961 Q332.361,167.031 332.256,167.031 Q332.08,167.031 331.934,166.885 Q331.787,166.738 331.787,166.539 Q331.787,166.363 331.904,166.211 Q331.998,166.117 332.291,166.012 z" fill="#000000"/>
    <g>
      <path d="M328.5,235.5 L397.5,235.5 L397.5,304.5 L328.5,304.5 L328.5,235.5 z" fill-opacity="0" stroke="#FFBE9D" stroke-width="1" stroke-dasharray="3,2"/>
      <g>
        <path d="M348.566,287.872 C352.827,287.872 356.28,284.341 356.28,279.991 C356.28,275.642 352.827,272.116 348.566,272.116 C344.316,272.116 340.86,275.642 340.86,279.991 C340.86,284.341 344.316,287.872 348.566,287.872 M339.105,279.991 C339.105,274.652 343.349,270.333 348.566,270.333 C353.796,270.333 358.041,274.652 358.041,279.991 C358.041,285.336 353.796,289.653 348.566,289.653 C343.349,289.653 339.105,285.335 339.105,279.991" fill="#FFBE9D"/>
        <path d="M376.434,287.963 C380.684,287.963 384.136,284.437 384.136,280.088 C384.136,275.738 380.685,272.207 376.434,272.207 C372.173,272.207 368.714,275.738 368.714,280.088 C368.714,284.437 372.173,287.963 376.434,287.963 M366.959,280.088 C366.959,274.743 371.204,270.429 376.434,270.429 C381.646,270.429 385.896,274.744 385.896,280.088 C385.896,285.427 381.646,289.749 376.434,289.749 C371.204,289.749 366.959,285.427 366.959,280.088" fill="#FFBE9D"/>
        <path d="M366.985,256.51 C368.947,256.51 370.546,254.89 370.546,252.884 C370.546,250.881 368.947,249.251 366.985,249.251 C365.02,249.251 363.423,250.882 363.423,252.884 C363.423,254.891 365.02,256.51 366.985,256.51" fill="#FFBE9D"/>
        <path d="M367.133,265.326 C366.615,265.337 366.061,265.073 365.653,264.414 L363.339,260.724 L358.568,265.546 L362.989,267.924 C364.808,268.81 364.539,270.444 364.539,270.444 L364.539,280.663 C364.539,281.822 363.624,282.765 362.49,282.765 C361.352,282.765 360.439,281.82 360.439,280.663 L360.439,272.482 L352.769,268.132 C351.855,267.609 351.235,266.61 351.235,265.474 C351.235,264.692 351.521,263.972 351.999,263.437 L359.525,255.742 C360.459,254.667 361.763,254.836 361.763,254.836 C363.339,254.836 364.169,256.243 364.169,256.243 L368.077,262.491 L374.011,262.48 C376.147,262.48 376.147,265.325 374.011,265.325 L367.133,265.325 z" fill="#FFBE9D"/>
      </g>
    </g>
    <g>
      <path d="M578.5,235.5 L647.5,235.5 L647.5,304.5 L578.5,304.5 L578.5,235.5 z" fill-opacity="0" stroke="#FFBE9D" stroke-width="1" stroke-dasharray="3,2"/>
      <g>
        <path d="M598.566,287.872 C602.827,287.872 606.28,284.341 606.28,279.991 C606.28,275.642 602.827,272.116 598.566,272.116 C594.316,272.116 590.86,275.642 590.86,279.991 C590.86,284.341 594.316,287.872 598.566,287.872 M589.104,279.991 C589.104,274.652 593.349,270.333 598.566,270.333 C603.796,270.333 608.041,274.652 608.041,279.991 C608.041,285.336 603.796,289.653 598.566,289.653 C593.349,289.653 589.104,285.335 589.104,279.991" fill="#FFBE9D"/>
        <path d="M626.434,287.963 C630.684,287.963 634.136,284.437 634.136,280.088 C634.136,275.738 630.685,272.207 626.434,272.207 C622.173,272.207 618.714,275.738 618.714,280.088 C618.714,284.437 622.173,287.963 626.434,287.963 M616.959,280.088 C616.959,274.743 621.204,270.429 626.434,270.429 C631.646,270.429 635.896,274.744 635.896,280.088 C635.896,285.427 631.646,289.749 626.434,289.749 C621.204,289.749 616.959,285.427 616.959,280.088" fill="#FFBE9D"/>
        <path d="M616.985,256.51 C618.947,256.51 620.546,254.89 620.546,252.884 C620.546,250.881 618.947,249.251 616.985,249.251 C615.02,249.251 613.423,250.882 613.423,252.884 C613.423,254.891 615.02,256.51 616.985,256.51" fill="#FFBE9D"/>
        <path d="M617.133,265.326 C616.615,265.337 616.061,265.073 615.653,264.414 L613.339,260.724 L608.568,265.546 L612.989,267.924 C614.807,268.81 614.539,270.444 614.539,270.444 L614.539,280.663 C614.539,281.822 613.624,282.765 612.49,282.765 C611.352,282.765 610.439,281.82 610.439,280.663 L610.439,272.482 L602.769,268.132 C601.855,267.609 601.235,266.61 601.235,265.474 C601.235,264.692 601.521,263.972 601.999,263.437 L609.525,255.742 C610.459,254.667 611.763,254.836 611.763,254.836 C613.339,254.836 614.169,256.243 614.169,256.243 L618.077,262.491 L624.011,262.48 C626.146,262.48 626.146,265.325 624.011,265.325 L617.133,265.325 z" fill="#FFBE9D"/>
      </g>
    </g>
    <path d="M551.797,116.348 L551.797,116.02 Q551.797,115.656 551.938,115.504 Q552.078,115.352 552.289,115.352 Q552.512,115.352 552.652,115.504 Q552.793,115.656 552.793,116.02 L552.793,118.246 Q552.781,118.609 552.646,118.762 Q552.512,118.914 552.289,118.914 Q552.09,118.914 551.955,118.779 Q551.82,118.645 551.797,118.328 Q551.727,117.496 550.701,116.746 Q549.676,115.996 547.941,115.996 Q545.75,115.996 544.613,117.367 Q543.477,118.738 543.477,120.508 Q543.477,122.418 544.73,123.66 Q545.984,124.902 547.977,124.902 Q549.125,124.902 550.314,124.48 Q551.504,124.059 552.465,123.121 Q552.711,122.887 552.898,122.887 Q553.098,122.887 553.232,123.021 Q553.367,123.156 553.367,123.355 Q553.367,123.859 552.184,124.633 Q550.273,125.887 547.93,125.887 Q545.551,125.887 544.021,124.369 Q542.492,122.852 542.492,120.52 Q542.492,118.141 544.057,116.57 Q545.621,115 548,115 Q550.262,115 551.797,116.348 z" fill="#000000"/>
    <path d="M567.594,120.449 Q567.594,122.699 565.982,124.293 Q564.371,125.887 562.098,125.887 Q559.801,125.887 558.195,124.287 Q556.59,122.688 556.59,120.449 Q556.59,118.199 558.195,116.6 Q559.801,115 562.098,115 Q564.371,115 565.982,116.594 Q567.594,118.188 567.594,120.449 z M566.598,120.449 Q566.598,118.598 565.279,117.297 Q563.961,115.996 562.086,115.996 Q560.211,115.996 558.893,117.303 Q557.574,118.609 557.574,120.449 Q557.574,122.277 558.893,123.59 Q560.211,124.902 562.086,124.902 Q563.961,124.902 565.279,123.596 Q566.598,122.289 566.598,120.449 z" fill="#000000"/>
    <path d="M579.746,115.996 Q579.746,115.656 579.887,115.504 Q580.027,115.352 580.238,115.352 Q580.461,115.352 580.602,115.504 Q580.742,115.656 580.742,116.02 L580.742,117.707 Q580.742,118.059 580.602,118.211 Q580.461,118.363 580.238,118.363 Q580.039,118.363 579.904,118.234 Q579.77,118.105 579.746,117.812 Q579.676,117.109 579.02,116.652 Q578.059,115.996 576.477,115.996 Q574.824,115.996 573.91,116.664 Q573.219,117.168 573.219,117.789 Q573.219,118.492 574.039,118.961 Q574.602,119.289 576.172,119.465 Q578.223,119.688 579.02,119.969 Q580.156,120.379 580.713,121.105 Q581.27,121.832 581.27,122.676 Q581.27,123.93 580.062,124.908 Q578.855,125.887 576.523,125.887 Q574.191,125.887 572.703,124.703 Q572.703,125.102 572.656,125.219 Q572.609,125.336 572.486,125.418 Q572.363,125.5 572.211,125.5 Q572,125.5 571.859,125.348 Q571.719,125.195 571.719,124.844 L571.719,122.816 Q571.719,122.465 571.854,122.312 Q571.988,122.16 572.211,122.16 Q572.422,122.16 572.568,122.307 Q572.715,122.453 572.715,122.699 Q572.715,123.238 572.984,123.602 Q573.395,124.164 574.291,124.533 Q575.188,124.902 576.488,124.902 Q578.41,124.902 579.348,124.188 Q580.285,123.473 580.285,122.676 Q580.285,121.762 579.336,121.211 Q578.375,120.66 576.541,120.473 Q574.707,120.285 573.91,119.98 Q573.113,119.676 572.668,119.066 Q572.223,118.457 572.223,117.754 Q572.223,116.488 573.465,115.744 Q574.707,115 576.43,115 Q578.469,115 579.746,115.996 z" fill="#000000"/>
    <path d="M585.793,118.34 Q585.793,115.023 587.211,112.908 Q588.629,110.793 590.902,110.793 Q593.188,110.793 594.6,112.92 Q596.012,115.047 596.012,118.34 Q596.012,121.621 594.582,123.754 Q593.152,125.887 590.902,125.887 Q588.652,125.887 587.223,123.777 Q585.793,121.668 585.793,118.34 z M595.016,117.848 Q594.969,115.223 593.879,113.506 Q592.789,111.789 590.902,111.789 Q589.062,111.789 587.926,113.506 Q586.789,115.223 586.777,117.848 z M586.777,118.844 Q586.789,121.457 587.926,123.18 Q589.062,124.902 590.902,124.902 Q592.742,124.902 593.873,123.186 Q595.004,121.469 595.016,118.844 z" fill="#000000"/>
    <path d="M622.953,115.996 Q622.953,115.656 623.094,115.504 Q623.234,115.352 623.445,115.352 Q623.668,115.352 623.809,115.504 Q623.949,115.656 623.949,116.02 L623.949,117.707 Q623.949,118.059 623.809,118.211 Q623.668,118.363 623.445,118.363 Q623.246,118.363 623.111,118.234 Q622.977,118.105 622.953,117.812 Q622.883,117.109 622.227,116.652 Q621.266,115.996 619.684,115.996 Q618.031,115.996 617.117,116.664 Q616.426,117.168 616.426,117.789 Q616.426,118.492 617.246,118.961 Q617.809,119.289 619.379,119.465 Q621.43,119.688 622.227,119.969 Q623.363,120.379 623.92,121.105 Q624.477,121.832 624.477,122.676 Q624.477,123.93 623.27,124.908 Q622.062,125.887 619.73,125.887 Q617.398,125.887 615.91,124.703 Q615.91,125.102 615.863,125.219 Q615.816,125.336 615.693,125.418 Q615.57,125.5 615.418,125.5 Q615.207,125.5 615.066,125.348 Q614.926,125.195 614.926,124.844 L614.926,122.816 Q614.926,122.465 615.061,122.312 Q615.195,122.16 615.418,122.16 Q615.629,122.16 615.775,122.307 Q615.922,122.453 615.922,122.699 Q615.922,123.238 616.191,123.602 Q616.602,124.164 617.498,124.533 Q618.395,124.902 619.695,124.902 Q621.617,124.902 622.555,124.188 Q623.492,123.473 623.492,122.676 Q623.492,121.762 622.543,121.211 Q621.582,120.66 619.748,120.473 Q617.914,120.285 617.117,119.98 Q616.32,119.676 615.875,119.066 Q615.43,118.457 615.43,117.754 Q615.43,116.488 616.672,115.744 Q617.914,115 619.637,115 Q621.676,115 622.953,115.996 z" fill="#000000"/>
    <path d="M634.59,110.301 L634.59,112.844 L633.137,112.844 L633.137,110.301 z M634.625,115.352 L634.625,124.516 L638.492,124.516 Q638.855,124.516 639.008,124.65 Q639.16,124.785 639.16,125.008 Q639.16,125.219 639.008,125.359 Q638.855,125.5 638.492,125.5 L629.773,125.5 Q629.422,125.5 629.27,125.359 Q629.117,125.219 629.117,125.008 Q629.117,124.785 629.27,124.65 Q629.422,124.516 629.773,124.516 L633.641,124.516 L633.641,116.348 L630.77,116.348 Q630.418,116.348 630.26,116.207 Q630.102,116.066 630.102,115.855 Q630.102,115.633 630.254,115.492 Q630.406,115.352 630.77,115.352 z" fill="#000000"/>
    <path d="M645.324,115.352 L645.324,116.84 Q646.355,115.797 647.188,115.398 Q648.02,115 649.062,115 Q650.188,115 651.113,115.48 Q651.77,115.832 652.303,116.646 Q652.836,117.461 652.836,118.316 L652.836,124.516 L653.668,124.516 Q654.02,124.516 654.172,124.65 Q654.324,124.785 654.324,125.008 Q654.324,125.219 654.172,125.359 Q654.02,125.5 653.668,125.5 L651.031,125.5 Q650.668,125.5 650.516,125.359 Q650.363,125.219 650.363,125.008 Q650.363,124.785 650.516,124.65 Q650.668,124.516 651.031,124.516 L651.852,124.516 L651.852,118.48 Q651.852,117.438 651.09,116.717 Q650.328,115.996 649.051,115.996 Q648.078,115.996 647.363,116.389 Q646.648,116.781 645.324,118.34 L645.324,124.516 L646.438,124.516 Q646.789,124.516 646.941,124.65 Q647.094,124.785 647.094,125.008 Q647.094,125.219 646.941,125.359 Q646.789,125.5 646.438,125.5 L643.227,125.5 Q642.875,125.5 642.723,125.359 Q642.57,125.219 642.57,125.008 Q642.57,124.785 642.723,124.65 Q642.875,124.516 643.227,124.516 L644.34,124.516 L644.34,116.348 L643.508,116.348 Q643.156,116.348 643.004,116.207 Q642.852,116.066 642.852,115.844 Q642.852,115.633 643.004,115.492 Q643.156,115.352 643.508,115.352 z" fill="#000000"/>
    <path d="M657.805,118.34 Q657.805,115.023 659.223,112.908 Q660.641,110.793 662.914,110.793 Q665.199,110.793 666.611,112.92 Q668.023,115.047 668.023,118.34 Q668.023,121.621 666.594,123.754 Q665.164,125.887 662.914,125.887 Q660.664,125.887 659.234,123.777 Q657.805,121.668 657.805,118.34 z M667.027,117.848 Q666.98,115.223 665.891,113.506 Q664.801,111.789 662.914,111.789 Q661.074,111.789 659.938,113.506 Q658.801,115.223 658.789,117.848 z M658.789,118.844 Q658.801,121.457 659.938,123.18 Q661.074,124.902 662.914,124.902 Q664.754,124.902 665.885,123.186 Q667.016,121.469 667.027,118.844 z" fill="#000000"/>
    <path d="M696.23,116.934 L696.23,119.371 Q696.23,122.547 694.719,124.398 Q693.535,125.852 691.73,125.852 Q690.863,125.852 690.096,125.506 Q689.328,125.16 688.789,124.539 Q688.449,124.152 688.045,123.297 Q687.641,122.441 687.465,121.727 Q687.195,120.719 687.195,119.371 L687.195,116.934 Q687.195,113.746 688.707,111.895 Q689.891,110.441 691.695,110.441 Q692.574,110.441 693.336,110.787 Q694.098,111.133 694.637,111.754 Q694.988,112.152 695.387,113.008 Q695.785,113.863 695.973,114.566 Q696.23,115.574 696.23,116.934 z M695.246,117.062 Q695.246,115.668 694.854,114.467 Q694.461,113.266 693.969,112.551 Q693.676,112.141 693.207,111.848 Q692.539,111.438 691.707,111.438 Q690.055,111.438 689.117,113.125 Q688.18,114.812 688.18,117.062 L688.18,119.23 Q688.18,120.625 688.572,121.832 Q688.965,123.039 689.469,123.754 Q689.75,124.152 690.219,124.445 Q690.887,124.867 691.73,124.867 Q693.371,124.867 694.309,123.174 Q695.246,121.48 695.246,119.23 z" fill="#000000"/>
    <path d="M538.309,145.012 L538.309,146.418 L528.266,146.418 L528.266,145.012 z" fill="#000000"/>
    <path d="M550.941,142.996 Q550.941,142.656 551.082,142.504 Q551.223,142.352 551.434,142.352 Q551.656,142.352 551.797,142.504 Q551.938,142.656 551.938,143.02 L551.938,144.707 Q551.938,145.059 551.797,145.211 Q551.656,145.363 551.434,145.363 Q551.234,145.363 551.1,145.234 Q550.965,145.105 550.941,144.812 Q550.871,144.109 550.215,143.652 Q549.254,142.996 547.672,142.996 Q546.02,142.996 545.105,143.664 Q544.414,144.168 544.414,144.789 Q544.414,145.492 545.234,145.961 Q545.797,146.289 547.367,146.465 Q549.418,146.688 550.215,146.969 Q551.352,147.379 551.908,148.105 Q552.465,148.832 552.465,149.676 Q552.465,150.93 551.258,151.908 Q550.051,152.887 547.719,152.887 Q545.387,152.887 543.898,151.703 Q543.898,152.102 543.852,152.219 Q543.805,152.336 543.682,152.418 Q543.559,152.5 543.406,152.5 Q543.195,152.5 543.055,152.348 Q542.914,152.195 542.914,151.844 L542.914,149.816 Q542.914,149.465 543.049,149.312 Q543.184,149.16 543.406,149.16 Q543.617,149.16 543.764,149.307 Q543.91,149.453 543.91,149.699 Q543.91,150.238 544.18,150.602 Q544.59,151.164 545.486,151.533 Q546.383,151.902 547.684,151.902 Q549.605,151.902 550.543,151.188 Q551.48,150.473 551.48,149.676 Q551.48,148.762 550.531,148.211 Q549.57,147.66 547.736,147.473 Q545.902,147.285 545.105,146.98 Q544.309,146.676 543.863,146.066 Q543.418,145.457 543.418,144.754 Q543.418,143.488 544.66,142.744 Q545.902,142 547.625,142 Q549.664,142 550.941,142.996 z" fill="#000000"/>
    <path d="M562.578,137.301 L562.578,139.844 L561.125,139.844 L561.125,137.301 z M562.613,142.352 L562.613,151.516 L566.48,151.516 Q566.844,151.516 566.996,151.65 Q567.148,151.785 567.148,152.008 Q567.148,152.219 566.996,152.359 Q566.844,152.5 566.48,152.5 L557.762,152.5 Q557.41,152.5 557.258,152.359 Q557.105,152.219 557.105,152.008 Q557.105,151.785 557.258,151.65 Q557.41,151.516 557.762,151.516 L561.629,151.516 L561.629,143.348 L558.758,143.348 Q558.406,143.348 558.248,143.207 Q558.09,143.066 558.09,142.855 Q558.09,142.633 558.242,142.492 Q558.395,142.352 558.758,142.352 z" fill="#000000"/>
    <path d="M573.312,142.352 L573.312,143.84 Q574.344,142.797 575.176,142.398 Q576.008,142 577.051,142 Q578.176,142 579.102,142.48 Q579.758,142.832 580.291,143.646 Q580.824,144.461 580.824,145.316 L580.824,151.516 L581.656,151.516 Q582.008,151.516 582.16,151.65 Q582.312,151.785 582.312,152.008 Q582.312,152.219 582.16,152.359 Q582.008,152.5 581.656,152.5 L579.02,152.5 Q578.656,152.5 578.504,152.359 Q578.352,152.219 578.352,152.008 Q578.352,151.785 578.504,151.65 Q578.656,151.516 579.02,151.516 L579.84,151.516 L579.84,145.48 Q579.84,144.438 579.078,143.717 Q578.316,142.996 577.039,142.996 Q576.066,142.996 575.352,143.389 Q574.637,143.781 573.312,145.34 L573.312,151.516 L574.426,151.516 Q574.777,151.516 574.93,151.65 Q575.082,151.785 575.082,152.008 Q575.082,152.219 574.93,152.359 Q574.777,152.5 574.426,152.5 L571.215,152.5 Q570.863,152.5 570.711,152.359 Q570.559,152.219 570.559,152.008 Q570.559,151.785 570.711,151.65 Q570.863,151.516 571.215,151.516 L572.328,151.516 L572.328,143.348 L571.496,143.348 Q571.145,143.348 570.992,143.207 Q570.84,143.066 570.84,142.844 Q570.84,142.633 570.992,142.492 Q571.145,142.352 571.496,142.352 z" fill="#000000"/>
    <path d="M585.793,145.34 Q585.793,142.023 587.211,139.908 Q588.629,137.793 590.902,137.793 Q593.188,137.793 594.6,139.92 Q596.012,142.047 596.012,145.34 Q596.012,148.621 594.582,150.754 Q593.152,152.887 590.902,152.887 Q588.652,152.887 587.223,150.777 Q585.793,148.668 585.793,145.34 z M595.016,144.848 Q594.969,142.223 593.879,140.506 Q592.789,138.789 590.902,138.789 Q589.062,138.789 587.926,140.506 Q586.789,142.223 586.777,144.848 z M586.777,145.844 Q586.789,148.457 587.926,150.18 Q589.062,151.902 590.902,151.902 Q592.742,151.902 593.873,150.186 Q595.004,148.469 595.016,145.844 z" fill="#000000"/>
    <path d="M623.809,143.348 L623.809,143.02 Q623.809,142.656 623.949,142.504 Q624.09,142.352 624.301,142.352 Q624.523,142.352 624.664,142.504 Q624.805,142.656 624.805,143.02 L624.805,145.246 Q624.793,145.609 624.658,145.762 Q624.523,145.914 624.301,145.914 Q624.102,145.914 623.967,145.779 Q623.832,145.645 623.809,145.328 Q623.738,144.496 622.713,143.746 Q621.688,142.996 619.953,142.996 Q617.762,142.996 616.625,144.367 Q615.488,145.738 615.488,147.508 Q615.488,149.418 616.742,150.66 Q617.996,151.902 619.988,151.902 Q621.137,151.902 622.326,151.48 Q623.516,151.059 624.477,150.121 Q624.723,149.887 624.91,149.887 Q625.109,149.887 625.244,150.021 Q625.379,150.156 625.379,150.355 Q625.379,150.859 624.195,151.633 Q622.285,152.887 619.941,152.887 Q617.562,152.887 616.033,151.369 Q614.504,149.852 614.504,147.52 Q614.504,145.141 616.068,143.57 Q617.633,142 620.012,142 Q622.273,142 623.809,143.348 z" fill="#000000"/>
    <path d="M639.605,147.449 Q639.605,149.699 637.994,151.293 Q636.383,152.887 634.109,152.887 Q631.812,152.887 630.207,151.287 Q628.602,149.688 628.602,147.449 Q628.602,145.199 630.207,143.6 Q631.812,142 634.109,142 Q636.383,142 637.994,143.594 Q639.605,145.188 639.605,147.449 z M638.609,147.449 Q638.609,145.598 637.291,144.297 Q635.973,142.996 634.098,142.996 Q632.223,142.996 630.904,144.303 Q629.586,145.609 629.586,147.449 Q629.586,149.277 630.904,150.59 Q632.223,151.902 634.098,151.902 Q635.973,151.902 637.291,150.596 Q638.609,149.289 638.609,147.449 z" fill="#000000"/>
    <path d="M651.758,142.996 Q651.758,142.656 651.898,142.504 Q652.039,142.352 652.25,142.352 Q652.473,142.352 652.613,142.504 Q652.754,142.656 652.754,143.02 L652.754,144.707 Q652.754,145.059 652.613,145.211 Q652.473,145.363 652.25,145.363 Q652.051,145.363 651.916,145.234 Q651.781,145.105 651.758,144.812 Q651.688,144.109 651.031,143.652 Q650.07,142.996 648.488,142.996 Q646.836,142.996 645.922,143.664 Q645.23,144.168 645.23,144.789 Q645.23,145.492 646.051,145.961 Q646.613,146.289 648.184,146.465 Q650.234,146.688 651.031,146.969 Q652.168,147.379 652.725,148.105 Q653.281,148.832 653.281,149.676 Q653.281,150.93 652.074,151.908 Q650.867,152.887 648.535,152.887 Q646.203,152.887 644.715,151.703 Q644.715,152.102 644.668,152.219 Q644.621,152.336 644.498,152.418 Q644.375,152.5 644.223,152.5 Q644.012,152.5 643.871,152.348 Q643.73,152.195 643.73,151.844 L643.73,149.816 Q643.73,149.465 643.865,149.312 Q644,149.16 644.223,149.16 Q644.434,149.16 644.58,149.307 Q644.727,149.453 644.727,149.699 Q644.727,150.238 644.996,150.602 Q645.406,151.164 646.303,151.533 Q647.199,151.902 648.5,151.902 Q650.422,151.902 651.359,151.188 Q652.297,150.473 652.297,149.676 Q652.297,148.762 651.348,148.211 Q650.387,147.66 648.553,147.473 Q646.719,147.285 645.922,146.98 Q645.125,146.676 644.68,146.066 Q644.234,145.457 644.234,144.754 Q644.234,143.488 645.477,142.744 Q646.719,142 648.441,142 Q650.48,142 651.758,142.996 z" fill="#000000"/>
    <path d="M657.805,145.34 Q657.805,142.023 659.223,139.908 Q660.641,137.793 662.914,137.793 Q665.199,137.793 666.611,139.92 Q668.023,142.047 668.023,145.34 Q668.023,148.621 666.594,150.754 Q665.164,152.887 662.914,152.887 Q660.664,152.887 659.234,150.777 Q657.805,148.668 657.805,145.34 z M667.027,144.848 Q666.98,142.223 665.891,140.506 Q664.801,138.789 662.914,138.789 Q661.074,138.789 659.938,140.506 Q658.801,142.223 658.789,144.848 z M658.789,145.844 Q658.801,148.457 659.938,150.18 Q661.074,151.902 662.914,151.902 Q664.754,151.902 665.885,150.186 Q667.016,148.469 667.027,145.844 z" fill="#000000"/>
    <path d="M696.23,143.934 L696.23,146.371 Q696.23,149.547 694.719,151.398 Q693.535,152.852 691.73,152.852 Q690.863,152.852 690.096,152.506 Q689.328,152.16 688.789,151.539 Q688.449,151.152 688.045,150.297 Q687.641,149.441 687.465,148.727 Q687.195,147.719 687.195,146.371 L687.195,143.934 Q687.195,140.746 688.707,138.895 Q689.891,137.441 691.695,137.441 Q692.574,137.441 693.336,137.787 Q694.098,138.133 694.637,138.754 Q694.988,139.152 695.387,140.008 Q695.785,140.863 695.973,141.566 Q696.23,142.574 696.23,143.934 z M695.246,144.062 Q695.246,142.668 694.854,141.467 Q694.461,140.266 693.969,139.551 Q693.676,139.141 693.207,138.848 Q692.539,138.438 691.707,138.438 Q690.055,138.438 689.117,140.125 Q688.18,141.812 688.18,144.062 L688.18,146.23 Q688.18,147.625 688.572,148.832 Q688.965,150.039 689.469,150.754 Q689.75,151.152 690.219,151.445 Q690.887,151.867 691.73,151.867 Q693.371,151.867 694.309,150.174 Q695.246,148.48 695.246,146.23 z" fill="#000000"/>
    <path d="M595.414,170.934 L595.414,173.371 Q595.414,176.547 593.902,178.398 Q592.719,179.852 590.914,179.852 Q590.047,179.852 589.279,179.506 Q588.512,179.16 587.973,178.539 Q587.633,178.152 587.229,177.297 Q586.824,176.441 586.648,175.727 Q586.379,174.719 586.379,173.371 L586.379,170.934 Q586.379,167.746 587.891,165.895 Q589.074,164.441 590.879,164.441 Q591.758,164.441 592.52,164.787 Q593.281,165.133 593.82,165.754 Q594.172,166.152 594.57,167.008 Q594.969,167.863 595.156,168.566 Q595.414,169.574 595.414,170.934 z M594.43,171.062 Q594.43,169.668 594.037,168.467 Q593.645,167.266 593.152,166.551 Q592.859,166.141 592.391,165.848 Q591.723,165.438 590.891,165.438 Q589.238,165.438 588.301,167.125 Q587.363,168.812 587.363,171.062 L587.363,173.23 Q587.363,174.625 587.756,175.832 Q588.148,177.039 588.652,177.754 Q588.934,178.152 589.402,178.445 Q590.07,178.867 590.914,178.867 Q592.555,178.867 593.492,177.174 Q594.43,175.48 594.43,173.23 z" fill="#000000"/>
    <path d="M667.426,170.934 L667.426,173.371 Q667.426,176.547 665.914,178.398 Q664.73,179.852 662.926,179.852 Q662.059,179.852 661.291,179.506 Q660.523,179.16 659.984,178.539 Q659.645,178.152 659.24,177.297 Q658.836,176.441 658.66,175.727 Q658.391,174.719 658.391,173.371 L658.391,170.934 Q658.391,167.746 659.902,165.895 Q661.086,164.441 662.891,164.441 Q663.77,164.441 664.531,164.787 Q665.293,165.133 665.832,165.754 Q666.184,166.152 666.582,167.008 Q666.98,167.863 667.168,168.566 Q667.426,169.574 667.426,170.934 z M666.441,171.062 Q666.441,169.668 666.049,168.467 Q665.656,167.266 665.164,166.551 Q664.871,166.141 664.402,165.848 Q663.734,165.438 662.902,165.438 Q661.25,165.438 660.312,167.125 Q659.375,168.812 659.375,171.062 L659.375,173.23 Q659.375,174.625 659.768,175.832 Q660.16,177.039 660.664,177.754 Q660.945,178.152 661.414,178.445 Q662.082,178.867 662.926,178.867 Q664.566,178.867 665.504,177.174 Q666.441,175.48 666.441,173.23 z" fill="#000000"/>
    <path d="M692.199,164.594 L692.199,178.516 L695.574,178.516 Q695.926,178.516 696.078,178.65 Q696.23,178.785 696.23,179.008 Q696.23,179.219 696.078,179.359 Q695.926,179.5 695.574,179.5 L687.84,179.5 Q687.488,179.5 687.336,179.359 Q687.184,179.219 687.184,179.008 Q687.184,178.785 687.336,178.65 Q687.488,178.516 687.84,178.516 L691.215,178.516 L691.215,165.953 L688.004,166.961 Q687.77,167.031 687.664,167.031 Q687.488,167.031 687.342,166.885 Q687.195,166.738 687.195,166.539 Q687.195,166.363 687.312,166.211 Q687.406,166.117 687.699,166.012 z" fill="#000000"/>
    <path d="M395.785,110.594 L395.785,124.516 L399.16,124.516 Q399.512,124.516 399.664,124.65 Q399.816,124.785 399.816,125.008 Q399.816,125.219 399.664,125.359 Q399.512,125.5 399.16,125.5 L391.426,125.5 Q391.074,125.5 390.922,125.359 Q390.77,125.219 390.77,125.008 Q390.77,124.785 390.922,124.65 Q391.074,124.516 391.426,124.516 L394.801,124.516 L394.801,111.953 L391.59,112.961 Q391.355,113.031 391.25,113.031 Q391.074,113.031 390.928,112.885 Q390.781,112.738 390.781,112.539 Q390.781,112.363 390.898,112.211 Q390.992,112.117 391.285,112.012 z" fill="#000000"/>
    <path d="M428.621,116.934 L428.621,119.371 Q428.621,122.547 427.109,124.398 Q425.926,125.852 424.121,125.852 Q423.254,125.852 422.486,125.506 Q421.719,125.16 421.18,124.539 Q420.84,124.152 420.436,123.297 Q420.031,122.441 419.855,121.727 Q419.586,120.719 419.586,119.371 L419.586,116.934 Q419.586,113.746 421.098,111.895 Q422.281,110.441 424.086,110.441 Q424.965,110.441 425.727,110.787 Q426.488,111.133 427.027,111.754 Q427.379,112.152 427.777,113.008 Q428.176,113.863 428.363,114.566 Q428.621,115.574 428.621,116.934 z M427.637,117.062 Q427.637,115.668 427.244,114.467 Q426.852,113.266 426.359,112.551 Q426.066,112.141 425.598,111.848 Q424.93,111.438 424.098,111.438 Q422.445,111.438 421.508,113.125 Q420.57,114.812 420.57,117.062 L420.57,119.23 Q420.57,120.625 420.963,121.832 Q421.355,123.039 421.859,123.754 Q422.141,124.152 422.609,124.445 Q423.277,124.867 424.121,124.867 Q425.762,124.867 426.699,123.174 Q427.637,121.48 427.637,119.23 z" fill="#000000"/>
    <path d="M453.5,118.48 L458.176,124.516 L458.551,124.516 Q458.902,124.516 459.055,124.65 Q459.207,124.785 459.207,125.008 Q459.207,125.219 459.055,125.359 Q458.902,125.5 458.551,125.5 L455.387,125.5 Q455.035,125.5 454.883,125.359 Q454.73,125.219 454.73,125.008 Q454.73,124.785 454.883,124.65 Q455.035,124.516 455.387,124.516 L456.957,124.516 L452.891,119.289 L448.871,124.516 L450.441,124.516 Q450.793,124.516 450.945,124.65 Q451.098,124.785 451.098,125.008 Q451.098,125.219 450.945,125.359 Q450.793,125.5 450.441,125.5 L447.301,125.5 Q446.949,125.5 446.797,125.359 Q446.645,125.219 446.645,125.008 Q446.645,124.844 446.738,124.715 Q446.832,124.586 446.949,124.551 Q447.066,124.516 447.664,124.516 L452.281,118.48 L447.875,112.773 L447.512,112.773 Q447.16,112.773 447.008,112.639 Q446.855,112.504 446.855,112.281 Q446.855,112.059 447.008,111.924 Q447.16,111.789 447.512,111.789 L450.195,111.789 Q450.559,111.789 450.711,111.924 Q450.863,112.059 450.863,112.281 Q450.863,112.504 450.711,112.639 Q450.559,112.773 450.195,112.773 L449.094,112.773 L452.891,117.684 L456.664,112.773 L455.562,112.773 Q455.199,112.773 455.047,112.639 Q454.895,112.504 454.895,112.281 Q454.895,112.059 455.047,111.924 Q455.199,111.789 455.562,111.789 L458.258,111.789 Q458.609,111.789 458.762,111.924 Q458.914,112.059 458.914,112.281 Q458.914,112.504 458.762,112.639 Q458.609,112.773 458.258,112.773 L457.883,112.773 z" fill="#000000"/>
    <path d="M399.816,143.934 L399.816,146.371 Q399.816,149.547 398.305,151.398 Q397.121,152.852 395.316,152.852 Q394.449,152.852 393.682,152.506 Q392.914,152.16 392.375,151.539 Q392.035,151.152 391.631,150.297 Q391.227,149.441 391.051,148.727 Q390.781,147.719 390.781,146.371 L390.781,143.934 Q390.781,140.746 392.293,138.895 Q393.477,137.441 395.281,137.441 Q396.16,137.441 396.922,137.787 Q397.684,138.133 398.223,138.754 Q398.574,139.152 398.973,140.008 Q399.371,140.863 399.559,141.566 Q399.816,142.574 399.816,143.934 z M398.832,144.062 Q398.832,142.668 398.439,141.467 Q398.047,140.266 397.555,139.551 Q397.262,139.141 396.793,138.848 Q396.125,138.438 395.293,138.438 Q393.641,138.438 392.703,140.125 Q391.766,141.812 391.766,144.062 L391.766,146.23 Q391.766,147.625 392.158,148.832 Q392.551,150.039 393.055,150.754 Q393.336,151.152 393.805,151.445 Q394.473,151.867 395.316,151.867 Q396.957,151.867 397.895,150.174 Q398.832,148.48 398.832,146.23 z" fill="#000000"/>
    <path d="M424.59,137.594 L424.59,151.516 L427.965,151.516 Q428.316,151.516 428.469,151.65 Q428.621,151.785 428.621,152.008 Q428.621,152.219 428.469,152.359 Q428.316,152.5 427.965,152.5 L420.23,152.5 Q419.879,152.5 419.727,152.359 Q419.574,152.219 419.574,152.008 Q419.574,151.785 419.727,151.65 Q419.879,151.516 420.23,151.516 L423.605,151.516 L423.605,138.953 L420.395,139.961 Q420.16,140.031 420.055,140.031 Q419.879,140.031 419.732,139.885 Q419.586,139.738 419.586,139.539 Q419.586,139.363 419.703,139.211 Q419.797,139.117 420.09,139.012 z" fill="#000000"/>
    <path d="M453.43,146.312 L453.43,151.516 L455.984,151.516 Q456.336,151.516 456.488,151.65 Q456.641,151.785 456.641,152.008 Q456.641,152.219 456.488,152.359 Q456.336,152.5 455.984,152.5 L449.879,152.5 Q449.527,152.5 449.375,152.359 Q449.223,152.219 449.223,152.008 Q449.223,151.785 449.369,151.65 Q449.516,151.516 449.879,151.516 L452.434,151.516 L452.434,146.312 L448.109,139.773 L447.523,139.773 Q447.172,139.773 447.02,139.639 Q446.867,139.504 446.867,139.281 Q446.867,139.059 447.02,138.924 Q447.172,138.789 447.523,138.789 L450.23,138.789 Q450.582,138.789 450.734,138.924 Q450.887,139.059 450.887,139.281 Q450.887,139.504 450.734,139.639 Q450.582,139.773 450.23,139.773 L449.258,139.773 L452.938,145.316 L456.535,139.773 L455.574,139.773 Q455.211,139.773 455.059,139.639 Q454.906,139.504 454.906,139.281 Q454.906,139.059 455.059,138.924 Q455.211,138.789 455.574,138.789 L458.27,138.789 Q458.621,138.789 458.773,138.924 Q458.926,139.059 458.926,139.281 Q458.926,139.504 458.773,139.639 Q458.621,139.773 458.27,139.773 L457.684,139.773 z" fill="#000000"/>
    <path d="M399.816,170.934 L399.816,173.371 Q399.816,176.547 398.305,178.398 Q397.121,179.852 395.316,179.852 Q394.449,179.852 393.682,179.506 Q392.914,179.16 392.375,178.539 Q392.035,178.152 391.631,177.297 Q391.227,176.441 391.051,175.727 Q390.781,174.719 390.781,173.371 L390.781,170.934 Q390.781,167.746 392.293,165.895 Q393.477,164.441 395.281,164.441 Q396.16,164.441 396.922,164.787 Q397.684,165.133 398.223,165.754 Q398.574,166.152 398.973,167.008 Q399.371,167.863 399.559,168.566 Q399.816,169.574 399.816,170.934 z M398.832,171.062 Q398.832,169.668 398.439,168.467 Q398.047,167.266 397.555,166.551 Q397.262,166.141 396.793,165.848 Q396.125,165.438 395.293,165.438 Q393.641,165.438 392.703,167.125 Q391.766,168.812 391.766,171.062 L391.766,173.23 Q391.766,174.625 392.158,175.832 Q392.551,177.039 393.055,177.754 Q393.336,178.152 393.805,178.445 Q394.473,178.867 395.316,178.867 Q396.957,178.867 397.895,177.174 Q398.832,175.48 398.832,173.23 z" fill="#000000"/>
    <path d="M428.621,170.934 L428.621,173.371 Q428.621,176.547 427.109,178.398 Q425.926,179.852 424.121,179.852 Q423.254,179.852 422.486,179.506 Q421.719,179.16 421.18,178.539 Q420.84,178.152 420.436,177.297 Q420.031,176.441 419.855,175.727 Q419.586,174.719 419.586,173.371 L419.586,170.934 Q419.586,167.746 421.098,165.895 Q422.281,164.441 424.086,164.441 Q424.965,164.441 425.727,164.787 Q426.488,165.133 427.027,165.754 Q427.379,166.152 427.777,167.008 Q428.176,167.863 428.363,168.566 Q428.621,169.574 428.621,170.934 z M427.637,171.062 Q427.637,169.668 427.244,168.467 Q426.852,167.266 426.359,166.551 Q426.066,166.141 425.598,165.848 Q424.93,165.438 424.098,165.438 Q422.445,165.438 421.508,167.125 Q420.57,168.812 420.57,171.062 L420.57,173.23 Q420.57,174.625 420.963,175.832 Q421.355,177.039 421.859,177.754 Q422.141,178.152 422.609,178.445 Q423.277,178.867 424.121,178.867 Q425.762,178.867 426.699,177.174 Q427.637,175.48 427.637,173.23 z" fill="#000000"/>
    <path d="M453.395,164.594 L453.395,178.516 L456.77,178.516 Q457.121,178.516 457.273,178.65 Q457.426,178.785 457.426,179.008 Q457.426,179.219 457.273,179.359 Q457.121,179.5 456.77,179.5 L449.035,179.5 Q448.684,179.5 448.531,179.359 Q448.379,179.219 448.379,179.008 Q448.379,178.785 448.531,178.65 Q448.684,178.516 449.035,178.516 L452.41,178.516 L452.41,165.953 L449.199,166.961 Q448.965,167.031 448.859,167.031 Q448.684,167.031 448.537,166.885 Q448.391,166.738 448.391,166.539 Q448.391,166.363 448.508,166.211 Q448.602,166.117 448.895,166.012 z" fill="#000000"/>
    <path d="M366.29,146.348 L363.208,149.43 Q363.032,149.605 362.95,149.646 Q362.868,149.688 362.751,149.688 Q362.54,149.688 362.393,149.541 Q362.247,149.395 362.247,149.184 Q362.247,148.984 362.516,148.727 L365.587,145.645 L362.505,142.562 Q362.247,142.305 362.247,142.105 Q362.247,141.895 362.393,141.748 Q362.54,141.602 362.751,141.602 Q362.95,141.602 363.208,141.871 L366.29,144.953 L369.348,141.883 Q369.618,141.625 369.817,141.625 Q370.028,141.625 370.169,141.771 Q370.309,141.918 370.309,142.129 Q370.309,142.328 370.052,142.586 L366.993,145.645 L370.075,148.727 Q370.333,148.996 370.333,149.195 Q370.333,149.406 370.186,149.553 Q370.04,149.699 369.829,149.699 Q369.723,149.699 369.653,149.652 Q369.536,149.605 369.372,149.43 z" fill="#333333"/>
  </g>
  <g id="transformed_drawings">
    <g>
      <path d="M82.5,235.5 L151.5,235.5 L151.5,304.5 L82.5,304.5 L82.5,235.5 z" fill-opacity="0" stroke="#FF5838" stroke-width="1"/>
      <g>
        <g>
          <path d="M103.066,288.372 C107.327,288.372 110.78,284.841 110.78,280.491 C110.78,276.142 107.327,272.616 103.066,272.616 C98.816,272.616 95.36,276.142 95.36,280.491 C95.36,284.841 98.816,288.372 103.066,288.372 M93.604,280.491 C93.604,275.152 97.849,270.833 103.066,270.833 C108.296,270.833 112.541,275.152 112.541,280.491 C112.541,285.836 108.296,290.153 103.066,290.153 C97.849,290.153 93.604,285.835 93.604,280.491" fill="#FF5838"/>
          <path d="M103.066,288.372 C107.327,288.372 110.78,284.841 110.78,280.491 C110.78,276.142 107.327,272.616 103.066,272.616 C98.816,272.616 95.36,276.142 95.36,280.491 C95.36,284.841 98.816,288.372 103.066,288.372 M93.604,280.491 C93.604,275.152 97.849,270.833 103.066,270.833 C108.296,270.833 112.541,275.152 112.541,280.491 C112.541,285.836 108.296,290.153 103.066,290.153 C97.849,290.153 93.604,285.835 93.604,280.491" fill-opacity="0" stroke="#FF5838" stroke-width="1"/>
        </g>
        <g>
          <path d="M130.934,288.463 C135.184,288.463 138.636,284.937 138.636,280.588 C138.636,276.238 135.185,272.707 130.934,272.707 C126.673,272.707 123.214,276.238 123.214,280.588 C123.214,284.937 126.673,288.463 130.934,288.463 M121.459,280.588 C121.459,275.243 125.704,270.929 130.934,270.929 C136.146,270.929 140.395,275.244 140.395,280.588 C140.395,285.927 136.146,290.249 130.934,290.249 C125.704,290.249 121.459,285.927 121.459,280.588" fill="#FF5838"/>
          <path d="M130.934,288.463 C135.184,288.463 138.636,284.937 138.636,280.588 C138.636,276.238 135.185,272.707 130.934,272.707 C126.673,272.707 123.214,276.238 123.214,280.588 C123.214,284.937 126.673,288.463 130.934,288.463 M121.459,280.588 C121.459,275.243 125.704,270.929 130.934,270.929 C136.146,270.929 140.395,275.244 140.395,280.588 C140.395,285.927 136.146,290.249 130.934,290.249 C125.704,290.249 121.459,285.927 121.459,280.588" fill-opacity="0" stroke="#FF5838" stroke-width="1"/>
        </g>
        <g>
          <path d="M121.485,257.01 C123.447,257.01 125.046,255.39 125.046,253.384 C125.046,251.381 123.447,249.751 121.485,249.751 C119.52,249.751 117.923,251.382 117.923,253.384 C117.923,255.391 119.52,257.01 121.485,257.01" fill="#FF5838"/>
          <path d="M121.485,257.01 C123.447,257.01 125.046,255.39 125.046,253.384 C125.046,251.381 123.447,249.751 121.485,249.751 C119.52,249.751 117.923,251.382 117.923,253.384 C117.923,255.391 119.52,257.01 121.485,257.01" fill-opacity="0" stroke="#FF5838" stroke-width="1"/>
        </g>
        <g>
          <path d="M121.633,265.826 C121.115,265.837 120.561,265.573 120.153,264.914 L117.839,261.224 L113.068,266.046 L117.489,268.424 C119.308,269.31 119.039,270.944 119.039,270.944 L119.039,281.163 C119.039,282.322 118.124,283.265 116.99,283.265 C115.852,283.265 114.939,282.32 114.939,281.163 L114.939,272.982 L107.269,268.632 C106.355,268.109 105.735,267.11 105.735,265.974 C105.735,265.192 106.021,264.472 106.499,263.937 L114.025,256.242 C114.959,255.167 116.263,255.336 116.263,255.336 C117.839,255.336 118.669,256.743 118.669,256.743 L122.577,262.991 L128.511,262.98 C130.646,262.98 130.646,265.825 128.511,265.825 L121.633,265.825 z" fill="#FF5838"/>
          <path d="M121.633,265.826 C121.115,265.837 120.561,265.573 120.153,264.914 L117.839,261.224 L113.068,266.046 L117.489,268.424 C119.308,269.31 119.039,270.944 119.039,270.944 L119.039,281.163 C119.039,282.322 118.124,283.265 116.99,283.265 C115.852,283.265 114.939,282.32 114.939,281.163 L114.939,272.982 L107.269,268.632 C106.355,268.109 105.735,267.11 105.735,265.974 C105.735,265.192 106.021,264.472 106.499,263.937 L114.025,256.242 C114.959,255.167 116.263,255.336 116.263,255.336 C117.839,255.336 118.669,256.743 118.669,256.743 L122.577,262.991 L128.511,262.98 C130.646,262.98 130.646,265.825 128.511,265.825 L121.633,265.825 z" fill-opacity="0" stroke="#FF5838" stroke-width="1"/>
        </g>
      </g>
    </g>
    <g>
      <path d="M392.034,301 L421.367,301 L421.367,365.167 L392.034,365.167 L392.034,301 z" fill-opacity="0" stroke="#FF5838" stroke-width="1"/>
      <g>
        <g>
          <path d="M400.777,350.168 C402.588,350.168 404.057,346.885 404.057,342.84 C404.057,338.795 402.588,335.517 400.777,335.517 C398.97,335.517 397.501,338.795 397.501,342.84 C397.501,346.885 398.97,350.168 400.777,350.168 M396.755,342.84 C396.755,337.875 398.559,333.858 400.777,333.858 C403.001,333.858 404.805,337.875 404.805,342.84 C404.805,347.81 403.001,351.824 400.777,351.824 C398.559,351.824 396.755,347.809 396.755,342.84" fill="#FF5838"/>
          <path d="M400.777,350.168 C402.588,350.168 404.057,346.885 404.057,342.84 C404.057,338.795 402.588,335.517 400.777,335.517 C398.97,335.517 397.501,338.795 397.501,342.84 C397.501,346.885 398.97,350.168 400.777,350.168 M396.755,342.84 C396.755,337.875 398.559,333.858 400.777,333.858 C403.001,333.858 404.805,337.875 404.805,342.84 C404.805,347.81 403.001,351.824 400.777,351.824 C398.559,351.824 396.755,347.809 396.755,342.84" fill-opacity="0" stroke="#FF5838" stroke-width="1"/>
        </g>
        <g>
          <path d="M412.624,350.253 C414.431,350.253 415.899,346.974 415.899,342.929 C415.899,338.885 414.432,335.601 412.624,335.601 C410.813,335.601 409.342,338.885 409.342,342.929 C409.342,346.974 410.813,350.253 412.624,350.253 M408.596,342.929 C408.596,337.959 410.401,333.947 412.624,333.947 C414.84,333.947 416.647,337.96 416.647,342.929 C416.647,347.895 414.84,351.914 412.624,351.914 C410.401,351.914 408.596,347.895 408.596,342.929" fill="#FF5838"/>
          <path d="M412.624,350.253 C414.431,350.253 415.899,346.974 415.899,342.929 C415.899,338.885 414.432,335.601 412.624,335.601 C410.813,335.601 409.342,338.885 409.342,342.929 C409.342,346.974 410.813,350.253 412.624,350.253 M408.596,342.929 C408.596,337.959 410.401,333.947 412.624,333.947 C414.84,333.947 416.647,337.96 416.647,342.929 C416.647,347.895 414.84,351.914 412.624,351.914 C410.401,351.914 408.596,347.895 408.596,342.929" fill-opacity="0" stroke="#FF5838" stroke-width="1"/>
        </g>
        <g>
          <path d="M408.607,321.003 C409.441,321.003 410.121,319.497 410.121,317.631 C410.121,315.768 409.441,314.253 408.607,314.253 C407.772,314.253 407.093,315.77 407.093,317.631 C407.093,319.498 407.772,321.003 408.607,321.003" fill="#FF5838"/>
          <path d="M408.607,321.003 C409.441,321.003 410.121,319.497 410.121,317.631 C410.121,315.768 409.441,314.253 408.607,314.253 C407.772,314.253 407.093,315.77 407.093,317.631 C407.093,319.498 407.772,321.003 408.607,321.003" fill-opacity="0" stroke="#FF5838" stroke-width="1"/>
        </g>
        <g>
          <path d="M408.67,329.202 C408.45,329.212 408.214,328.967 408.041,328.354 L407.057,324.922 L405.029,329.406 L406.909,331.617 C407.682,332.442 407.567,333.961 407.567,333.961 L407.567,343.464 C407.567,344.542 407.178,345.419 406.696,345.419 C406.213,345.419 405.825,344.54 405.825,343.464 L405.825,335.856 L402.564,331.811 C402.175,331.325 401.911,330.395 401.911,329.34 C401.911,328.612 402.033,327.943 402.236,327.445 L405.436,320.289 C405.833,319.289 406.387,319.446 406.387,319.446 C407.057,319.446 407.41,320.755 407.41,320.755 L409.072,326.565 L411.594,326.555 C412.502,326.555 412.502,329.2 411.594,329.2 L408.67,329.2 z" fill="#FF5838"/>
          <path d="M408.67,329.202 C408.45,329.212 408.214,328.967 408.041,328.354 L407.057,324.922 L405.029,329.406 L406.909,331.617 C407.682,332.442 407.567,333.961 407.567,333.961 L407.567,343.464 C407.567,344.542 407.178,345.419 406.696,345.419 C406.213,345.419 405.825,344.54 405.825,343.464 L405.825,335.856 L402.564,331.811 C402.175,331.325 401.911,330.395 401.911,329.34 C401.911,328.612 402.033,327.943 402.236,327.445 L405.436,320.289 C405.833,319.289 406.387,319.446 406.387,319.446 C407.057,319.446 407.41,320.755 407.41,320.755 L409.072,326.565 L411.594,326.555 C412.502,326.555 412.502,329.2 411.594,329.2 L408.67,329.2 z" fill-opacity="0" stroke="#FF5838" stroke-width="1"/>
        </g>
      </g>
    </g>
    <g>
      <path d="M578.5,235.5 L643.339,259.099 L619.739,323.938 L554.901,300.339 L578.5,235.5 z" fill-opacity="0" stroke="#FF5838" stroke-width="1"/>
      <g>
        <g>
          <path d="M579.742,292.217 C583.746,293.675 588.199,291.538 589.687,287.451 C591.174,283.364 589.135,278.869 585.131,277.412 C581.137,275.958 576.684,278.089 575.196,282.176 C573.708,286.263 575.749,290.764 579.742,292.217 M573.547,281.576 C575.373,276.559 580.839,273.952 585.741,275.736 C590.656,277.525 593.167,283.035 591.341,288.053 C589.513,293.075 584.048,295.68 579.133,293.891 C574.231,292.106 571.719,286.597 573.547,281.576" fill="#FF5838"/>
          <path d="M579.742,292.217 C583.746,293.675 588.199,291.538 589.687,287.451 C591.174,283.364 589.135,278.869 585.131,277.412 C581.137,275.958 576.684,278.089 575.196,282.176 C573.708,286.263 575.749,290.764 579.742,292.217 M573.547,281.576 C575.373,276.559 580.839,273.952 585.741,275.736 C590.656,277.525 593.167,283.035 591.341,288.053 C589.513,293.075 584.048,295.68 579.133,293.891 C574.231,292.106 571.719,286.597 573.547,281.576" fill-opacity="0" stroke="#FF5838" stroke-width="1"/>
        </g>
        <g>
          <path d="M605.899,301.834 C609.892,303.288 614.342,301.155 615.83,297.068 C617.318,292.981 615.282,288.483 611.287,287.029 C607.284,285.571 602.826,287.706 601.338,291.794 C599.85,295.881 601.895,300.377 605.899,301.834 M599.689,291.193 C601.517,286.171 606.981,283.569 611.896,285.358 C616.793,287.14 619.311,292.649 617.483,297.67 C615.657,302.687 610.185,305.295 605.288,303.512 C600.373,301.723 597.863,296.21 599.689,291.193" fill="#FF5838"/>
          <path d="M605.899,301.834 C609.892,303.288 614.342,301.155 615.83,297.068 C617.318,292.981 615.282,288.483 611.287,287.029 C607.284,285.571 602.826,287.706 601.338,291.794 C599.85,295.881 601.895,300.377 605.899,301.834 M599.689,291.193 C601.517,286.171 606.981,283.569 611.896,285.358 C616.793,287.14 619.311,292.649 617.483,297.67 C615.657,302.687 610.185,305.295 605.288,303.512 C600.373,301.723 597.863,296.21 599.689,291.193" fill-opacity="0" stroke="#FF5838" stroke-width="1"/>
        </g>
        <g>
          <path d="M607.777,269.046 C609.621,269.717 611.677,268.742 612.363,266.857 C613.049,264.975 612.103,262.896 610.259,262.225 C608.413,261.553 606.355,262.54 605.67,264.421 C604.984,266.307 605.93,268.374 607.777,269.046" fill="#FF5838"/>
          <path d="M607.777,269.046 C609.621,269.717 611.677,268.742 612.363,266.857 C613.049,264.975 612.103,262.896 610.259,262.225 C608.413,261.553 606.355,262.54 605.67,264.421 C604.984,266.307 605.93,268.374 607.777,269.046" fill-opacity="0" stroke="#FF5838" stroke-width="1"/>
        </g>
        <g>
          <path d="M604.901,277.381 C604.41,277.215 603.98,276.777 603.822,276.019 L602.909,271.759 L596.778,274.658 L600.119,278.405 C601.524,279.86 600.712,281.303 600.712,281.303 L597.217,290.906 C596.821,291.995 595.639,292.568 594.574,292.181 C593.504,291.791 592.969,290.591 593.365,289.504 L596.163,281.816 L590.443,275.106 C589.763,274.301 589.522,273.15 589.911,272.083 C590.178,271.348 590.693,270.77 591.325,270.43 L601.029,265.773 C602.275,265.082 603.442,265.687 603.442,265.687 C604.923,266.226 605.222,267.832 605.222,267.832 L606.758,275.04 L612.337,277.059 C614.344,277.79 613.371,280.463 611.364,279.732 L604.901,277.38 z" fill="#FF5838"/>
          <path d="M604.901,277.381 C604.41,277.215 603.98,276.777 603.822,276.019 L602.909,271.759 L596.778,274.658 L600.119,278.405 C601.524,279.86 600.712,281.303 600.712,281.303 L597.217,290.906 C596.821,291.995 595.639,292.568 594.574,292.181 C593.504,291.791 592.969,290.591 593.365,289.504 L596.163,281.816 L590.443,275.106 C589.763,274.301 589.522,273.15 589.911,272.083 C590.178,271.348 590.693,270.77 591.325,270.43 L601.029,265.773 C602.275,265.082 603.442,265.687 603.442,265.687 C604.923,266.226 605.222,267.832 605.222,267.832 L606.758,275.04 L612.337,277.059 C614.344,277.79 613.371,280.463 611.364,279.732 L604.901,277.38 z" fill-opacity="0" stroke="#FF5838" stroke-width="1"/>
        </g>
      </g>
    </g>
    <path d="M628.936,235.5 C628.936,243.6 624.913,250.167 619.951,250.167" fill-opacity="0" stroke="#000000" stroke-width="1"/>
    <text transform="matrix(1, 0, 0, 1, 635.638, 247.333)">
      <tspan x="-7.201" y="6" font-family="CourierNewPSMT" font-size="24" fill="#1C1C1C"></tspan>
    </text>
    <text transform="matrix(1, 0, 0, 1, 116.5, 72)">
      <tspan x="-39.564" y="8.5" font-family="HelveticaNeue" font-size="24" fill="#000000">Identity</tspan>
    </text>
    <text transform="matrix(1, 0, 0, 1, 366.284, 74)">
      <tspan x="-92.232" y="6.5" font-family="HelveticaNeue" font-size="24" fill="#000000">Scale &amp; Translate</tspan>
    </text>
    <text transform="matrix(1, 0, 0, 1, 612.5, 74)">
      <tspan x="-35.556" y="6.5" font-family="HelveticaNeue" font-size="24" fill="#000000">Rotate</tspan>
    </text>
    <path d="M392.034,304 L392.034,304 L392.034,304 C393.691,304 395.034,302.657 395.034,301 C395.034,299.343 393.691,298 392.034,298 C392.034,298 392.034,298 392.034,298 L392.034,298 C390.377,298 389.034,299.343 389.034,301 C389.034,302.657 390.377,304 392.034,304 L392.034,304" fill="#000000"/>
    <text transform="matrix(1, 0, 0, 1, 360.451, 314.5)">
      <tspan x="-36.006" y="6" font-family="CourierNewPSMT" font-size="24" fill="#1C1C1C">(X,Y)</tspan>
    </text>
    <text transform="matrix(1, 0, 0, 1, 445.242, 332.583)">
      <tspan x="-7.201" y="6" font-family="CourierNewPSMT" font-size="24" fill="#1C1C1C">H</tspan>
    </text>
    <g>
      <path d="M431.167,307 L431.167,359.167" fill-opacity="0" stroke="#000000" stroke-width="1"/>
      <path d="M431.167,307 L431.167,301 M436.167,301 L426.167,301" fill-opacity="0" stroke="#000000" stroke-width="1" stroke-opacity="1"/>
      <path d="M431.167,359.167 L431.167,365.167 M426.167,365.167 L436.167,365.167" fill-opacity="0" stroke="#000000" stroke-width="1" stroke-opacity="1"/>
    </g>
    <g>
      <path d="M398.034,376.167 L415.367,376.167" fill-opacity="0" stroke="#000000" stroke-width="1"/>
      <path d="M398.034,376.167 L392.034,376.167 M392.034,371.167 L392.034,381.167" fill-opacity="0" stroke="#000000" stroke-width="1" stroke-opacity="1"/>
      <path d="M415.367,376.167 L421.367,376.167 M421.367,381.167 L421.367,371.167" fill-opacity="0" stroke="#000000" stroke-width="1" stroke-opacity="1"/>
    </g>
    <text transform="matrix(1, 0, 0, 1, 406.201, 394)">
      <tspan x="-7.201" y="6" font-family="CourierNewPSMT" font-size="24" fill="#1C1C1C">W</tspan>
    </text>
  </g>
</svg>
